<svg version="1.1" id="Layer_1" xmlns="http://www.w3.org/2000/svg" xmlns:xlink="http://www.w3.org/1999/xlink" x="0px" y="0px"
	 width="100%" viewBox="0 0 651 111" enable-background="new 0 0 651 111" xml:space="preserve">
<path fill="#131313" opacity="1.000000" stroke="none" 
	d="
M486.000000,112.000000 
	C324.000031,112.000000 162.500061,112.000000 1.000065,112.000000 
	C1.000043,75.000038 1.000043,38.000072 1.000022,1.000080 
	C217.999924,1.000053 434.999847,1.000053 651.999817,1.000027 
	C651.999878,37.999920 651.999878,74.999840 651.999939,111.999878 
	C596.833313,112.000000 541.666687,112.000000 486.000000,112.000000 
M594.235229,90.369133 
	C594.791931,89.526047 595.348633,88.682961 595.925293,87.200340 
	C595.629395,86.663086 595.333435,86.125832 594.822205,85.068985 
	C592.870544,85.326027 590.918884,85.583076 588.930054,86.442383 
	C589.147766,87.768463 589.365417,89.094551 590.037292,90.819939 
	C590.416565,90.524315 590.795837,90.228691 591.757935,89.978287 
	C592.341736,89.982956 592.925476,89.987625 594.235229,90.369133 
M186.235260,90.368988 
	C186.791824,89.525780 187.348373,88.682571 187.924881,87.199959 
	C187.629089,86.662827 187.333298,86.125694 186.822144,85.069031 
	C184.870667,85.325806 182.919174,85.582581 180.930267,86.441734 
	C181.147903,87.768074 181.365540,89.094406 182.037354,90.819939 
	C182.416626,90.524323 182.795898,90.228706 183.757965,89.978294 
	C184.341721,89.982964 184.925461,89.987633 186.235260,90.368988 
M52.927010,84.862541 
	C52.927010,84.862541 52.748970,84.832146 52.748970,84.832146 
	C52.748970,84.832146 53.019547,84.986755 52.761345,85.624939 
	C51.516605,87.624619 50.271866,89.624306 48.798054,91.991997 
	C52.222641,91.822517 55.256096,91.672394 58.225628,91.525429 
	C59.548862,85.050453 59.279766,84.732605 52.927010,84.862541 
M576.862549,91.982452 
	C578.496399,90.709694 580.130249,89.436935 581.388306,88.456909 
	C579.741211,85.851730 578.227539,83.457512 576.181396,80.221146 
	C576.013000,82.809723 575.910950,84.378487 575.218262,85.852249 
	C573.060974,85.405228 570.903687,84.958206 568.842468,84.531097 
	C566.495239,91.097183 566.493896,91.109390 572.601196,91.790932 
	C573.749084,91.919029 574.912659,91.906418 576.862549,91.982452 
M316.617737,22.184553 
	C312.750366,17.503727 308.178589,15.772248 302.106873,17.836416 
	C299.893707,18.588812 297.060455,18.305574 294.718750,17.694824 
	C291.698517,16.907114 291.080505,18.372522 291.054047,20.625177 
	C291.009216,24.439575 291.182983,28.256540 291.084259,32.985115 
	C291.057159,42.614571 291.077118,52.244526 290.975739,61.873199 
	C290.943237,64.958710 291.606964,67.028473 295.303528,67.013565 
	C311.076935,66.949944 326.850830,66.968193 342.624451,67.004219 
	C345.450500,67.010681 347.026581,65.939026 346.996307,62.937157 
	C346.892578,52.649651 346.819427,42.361839 346.895844,31.212408 
	C346.321808,28.376629 349.066620,24.326042 343.022247,23.039684 
	C334.355682,22.924417 325.689148,22.809153 316.617737,22.184553 
M180.617722,22.184542 
	C176.750351,17.503717 172.178574,15.772261 166.106873,17.836416 
	C163.893692,18.588814 161.060455,18.305571 158.718765,17.694820 
	C155.698547,16.907101 155.080490,18.372561 155.054016,20.625179 
	C155.009186,24.439571 155.182968,28.256533 155.084259,32.985100 
	C155.057159,42.614586 155.077087,52.244572 154.975723,61.873276 
	C154.943237,64.958817 155.607101,67.028496 159.303619,67.013580 
	C175.077118,66.949928 190.851059,66.968178 206.624725,67.004196 
	C209.450943,67.010651 211.026611,65.938644 210.996323,62.936855 
	C210.892502,52.649315 210.819382,42.361469 210.895782,31.212221 
	C210.321823,28.376495 213.066605,24.326021 207.022293,23.039682 
	C198.355728,22.924416 189.689163,22.809147 180.617722,22.184542 
M44.617741,22.184565 
	C40.750374,17.503721 36.178600,15.772260 30.106886,17.836420 
	C27.893709,18.588816 25.060461,18.305576 22.718760,17.694824 
	C19.698555,16.907106 19.080509,18.372534 19.054041,20.625170 
	C19.009222,24.439568 19.182980,28.256533 19.084263,32.985111 
	C19.057167,42.614571 19.077089,52.244526 18.975727,61.873203 
	C18.943245,64.958679 19.606968,67.028488 23.303518,67.013580 
	C39.076958,66.949944 54.850842,66.968193 70.624458,67.004219 
	C73.450508,67.010666 75.026581,65.939026 74.996315,62.937157 
	C74.892570,52.649654 74.819435,42.361839 74.895859,31.212418 
	C74.321762,28.376659 77.066643,24.326048 71.022247,23.039680 
	C62.355701,22.924419 53.689156,22.809160 44.617741,22.184565 
M611.994507,32.256413 
	C606.335693,26.280560 600.676941,20.304707 594.120789,14.031511 
	C587.474060,14.018265 580.821533,14.165982 574.182739,13.930388 
	C570.304504,13.792758 568.893372,15.144300 568.935181,19.090544 
	C569.097473,34.376911 569.095947,49.667000 568.937439,64.953445 
	C568.895630,68.985802 570.545471,70.104019 574.304260,70.050789 
	C585.435791,69.893135 596.573669,69.850426 607.703186,70.067390 
	C611.972351,70.150620 613.150330,68.436768 613.063538,64.444046 
	C612.861145,55.142654 613.031311,45.833611 612.958923,36.528385 
	C612.949646,35.340427 612.393677,34.156731 611.994507,32.256413 
M475.994507,32.256409 
	C470.335693,26.280546 464.676880,20.304686 458.120758,14.031511 
	C451.473999,14.018264 444.821503,14.165994 438.182617,13.930382 
	C434.304382,13.792744 432.893372,15.144457 432.935242,19.090572 
	C433.097412,34.376938 433.095886,49.667030 432.937439,64.953476 
	C432.895660,68.985947 434.545563,70.103996 438.304260,70.050774 
	C449.435760,69.893150 460.573700,69.850426 471.703186,70.067398 
	C475.972443,70.150627 477.150360,68.436638 477.063538,64.444000 
	C476.861176,55.142609 477.031311,45.833569 476.958862,36.528336 
	C476.949615,35.340385 476.393646,34.156693 475.994507,32.256409 
M466.101776,81.210083 
	C464.267151,83.509010 462.432526,85.807938 460.244781,88.549316 
	C462.354919,89.911476 464.283081,91.156166 466.878571,92.831650 
	C466.878571,87.994965 466.878571,84.717789 466.101776,81.210083 
M76.138092,85.679199 
	C76.042717,84.179802 75.947334,82.680405 75.805779,80.455040 
	C73.345810,83.473152 71.504379,85.732376 69.283310,88.457390 
	C71.300987,89.855949 73.209778,91.179024 76.138168,93.208839 
	C76.138168,89.825996 76.138168,88.198341 76.138092,85.679199 
M449.300751,85.890854 
	C447.510620,85.410065 445.720490,84.929283 444.223846,84.527328 
	C442.634857,87.230484 441.342926,89.428246 439.844940,91.976585 
	C443.142212,91.829979 446.193390,91.694313 449.587372,91.543404 
	C449.587372,89.730377 449.587372,88.134132 449.300751,85.890854 
M35.555813,92.100868 
	C36.507801,90.650337 37.459789,89.199806 38.434208,87.715096 
	C37.071270,86.532814 35.460274,85.135345 33.390778,83.340157 
	C33.390778,88.015335 33.390778,91.393082 33.390778,94.770828 
	C33.636013,94.787018 33.881248,94.803215 34.126484,94.819405 
	C34.408184,94.092018 34.689884,93.364624 35.555813,92.100868 
M321.873230,86.818466 
	C321.873230,89.476784 321.873230,92.135094 321.873230,94.793411 
	C322.232422,94.795891 322.591614,94.798370 322.950806,94.800850 
	C324.436310,92.456154 325.921844,90.111458 327.186829,88.114853 
	C326.506958,87.079735 326.042145,85.618843 325.095428,85.166527 
	C324.323822,84.797859 322.975769,85.635620 321.873230,86.818466 
M424.256256,84.275406 
	C424.256256,87.743103 424.256256,91.210800 424.256256,95.771034 
	C426.361694,92.520729 427.884888,90.169296 429.460388,87.737144 
	C428.057983,86.582382 426.566223,85.354034 424.256256,84.275406 
M549.767639,87.411377 
	C548.237305,95.277321 554.395813,89.518745 555.877014,92.048317 
	C556.349915,91.649078 556.822876,91.249840 557.295837,90.850601 
	C556.607910,88.857315 555.920044,86.864021 555.232117,84.870735 
	C553.470459,85.495605 551.708801,86.120476 549.767639,87.411377 
M171.889328,83.922638 
	C171.889328,86.517296 171.889328,89.111946 171.889328,91.706604 
	C174.650375,89.514252 171.868073,84.350784 178.306717,85.432716 
	C175.649002,83.734543 173.901794,82.618149 172.084839,81.457199 
	C172.010635,82.087975 171.953171,82.576576 171.889328,83.922638 
M407.889954,89.144211 
	C407.999908,90.000572 408.109894,90.856926 408.229218,91.786179 
	C409.832855,89.082367 411.276489,86.648338 412.630646,84.365112 
	C411.545349,83.636520 409.866913,82.509766 407.888367,81.181534 
	C407.888367,83.682693 407.888367,85.972466 407.889954,89.144211 
M18.983425,83.414261 
	C18.602360,82.656319 18.221292,81.898369 17.244122,79.954765 
	C17.244122,84.798279 17.244122,88.224747 17.244122,91.786064 
	C18.811840,89.118942 20.251097,86.670380 21.726103,84.160995 
	C21.526846,84.128616 20.592207,83.976738 18.983425,83.414261 
M615.686951,91.207748 
	C617.426758,90.259972 619.166504,89.312195 621.848145,87.851357 
	C619.013123,86.405045 617.279846,85.520790 615.877563,84.805412 
	C615.618408,87.183220 615.419434,89.008987 615.686951,91.207748 
M479.350922,88.289612 
	C478.934326,89.165337 478.517700,90.041069 477.496155,92.188339 
	C480.486847,90.376785 482.174988,89.354233 484.719696,87.812828 
	C482.034119,86.426132 480.296570,85.528938 477.251160,83.956444 
	C478.457184,86.101273 478.906647,86.900642 479.350922,88.289612 
M475.110962,88.291840 
	C475.334167,87.266388 475.557373,86.240936 476.044983,84.000687 
	C474.248138,85.549675 472.522186,86.417595 472.586700,87.121330 
	C472.694427,88.296310 473.947144,89.366302 474.717834,90.480492 
	C474.871185,89.948814 475.024567,89.417130 475.110962,88.291840 
M612.179565,88.890617 
	C612.368347,87.678482 612.557068,86.466339 612.745850,85.254204 
	C612.393250,85.057373 612.040710,84.860542 611.688171,84.663712 
	C610.978943,85.932259 610.269714,87.200806 609.560486,88.469368 
	C610.465942,88.800201 611.371460,89.131035 612.179565,88.890617 
z"/>
<path fill="#4A85CB" opacity="1.000000" stroke="none" 
	d="
M346.734650,32.074142 
	C346.819427,42.361839 346.892578,52.649651 346.996307,62.937157 
	C347.026581,65.939026 345.450500,67.010681 342.624451,67.004219 
	C326.850830,66.968193 311.076935,66.949944 295.303528,67.013565 
	C291.606964,67.028473 290.943237,64.958710 290.975739,61.873199 
	C291.077118,52.244526 291.057159,42.614571 291.459442,32.434353 
	C292.834045,31.248175 293.833435,30.612757 295.126495,30.299450 
	C311.261444,30.726778 327.102722,30.831995 343.270508,30.993546 
	C344.642883,31.391300 345.688782,31.732723 346.734650,32.074142 
z"/>
<path fill="#4A85CB" opacity="1.000000" stroke="none" 
	d="
M210.734558,32.073738 
	C210.819382,42.361469 210.892502,52.649315 210.996323,62.936855 
	C211.026611,65.938644 209.450943,67.010651 206.624725,67.004196 
	C190.851059,66.968178 175.077118,66.949928 159.303619,67.013580 
	C155.607101,67.028496 154.943237,64.958817 154.975723,61.873276 
	C155.077087,52.244572 155.057159,42.614586 155.459442,32.434345 
	C156.834045,31.248173 157.833450,30.612753 159.126495,30.299442 
	C175.261429,30.726774 191.102737,30.831999 207.270523,30.993553 
	C208.642868,31.391167 209.688705,31.732452 210.734558,32.073738 
z"/>
<path fill="#4A85CB" opacity="1.000000" stroke="none" 
	d="
M74.734627,32.074146 
	C74.819435,42.361839 74.892570,52.649654 74.996315,62.937157 
	C75.026581,65.939026 73.450508,67.010666 70.624458,67.004219 
	C54.850842,66.968193 39.076958,66.949944 23.303518,67.013580 
	C19.606968,67.028488 18.943245,64.958679 18.975727,61.873203 
	C19.077089,52.244526 19.057167,42.614571 19.459446,32.434349 
	C20.834038,31.248173 21.833447,30.612753 23.126495,30.299438 
	C39.261429,30.726768 55.102726,30.831995 71.270523,30.993557 
	C72.642899,31.391310 73.688759,31.732727 74.734627,32.074146 
z"/>
<path fill="#CDCDCD" opacity="1.000000" stroke="none" 
	d="
M476.090973,32.971031 
	C476.393646,34.156693 476.949615,35.340385 476.958862,36.528336 
	C477.031311,45.833569 476.861176,55.142609 477.063538,64.444000 
	C477.150360,68.436638 475.972443,70.150627 471.703186,70.067398 
	C460.573700,69.850426 449.435760,69.893150 438.304260,70.050774 
	C434.545563,70.103996 432.895660,68.985947 432.937439,64.953476 
	C433.095886,49.667030 433.097412,34.376938 432.935242,19.090572 
	C432.893372,15.144457 434.304382,13.792744 438.182617,13.930382 
	C444.821503,14.165994 451.473999,14.018264 458.568024,14.626101 
	C459.013306,19.160799 458.856171,23.108717 459.053925,27.038776 
	C459.243347,30.803276 461.054352,33.165379 465.256287,33.030712 
	C468.864777,32.915062 472.479187,32.983818 476.090973,32.971031 
M464.085785,43.990276 
	C465.082367,43.485249 466.078979,42.980217 467.075592,42.475185 
	C466.926239,42.222282 466.776855,41.969376 466.627502,41.716469 
	C458.802002,41.716469 450.976501,41.716469 443.151001,41.716469 
	C443.130249,42.346264 443.109467,42.976063 443.088715,43.605858 
	C449.726135,44.432442 456.478333,43.793934 464.085785,43.990276 
M453.526367,47.001129 
	C450.074493,47.001129 446.622620,47.001129 441.915253,47.001129 
	C445.612152,50.513664 462.507782,50.880543 466.948120,47.352013 
	C462.802002,47.235050 458.655884,47.118092 453.526367,47.001129 
M446.830139,53.002872 
	C445.548187,53.356289 444.266205,53.709702 442.984253,54.063118 
	C443.083374,54.458088 443.182465,54.853058 443.281586,55.248028 
	C451.138245,55.248028 458.994904,55.248028 466.851562,55.248028 
	C466.878998,54.499168 466.906433,53.750313 466.933868,53.001453 
	C460.543671,53.001453 454.153442,53.001453 446.830139,53.002872 
M444.098206,61.831676 
	C448.702698,61.638592 453.557037,63.028629 457.785431,60.037823 
	C453.435486,59.050331 449.175476,58.965706 444.927460,59.152767 
	C444.368988,59.177361 443.871735,60.591869 444.098206,61.831676 
z"/>
<path fill="#CDCDCD" opacity="1.000000" stroke="none" 
	d="
M612.091003,32.971054 
	C612.393677,34.156731 612.949646,35.340427 612.958923,36.528385 
	C613.031311,45.833611 612.861145,55.142654 613.063538,64.444046 
	C613.150330,68.436768 611.972351,70.150620 607.703186,70.067390 
	C596.573669,69.850426 585.435791,69.893135 574.304260,70.050789 
	C570.545471,70.104019 568.895630,68.985802 568.937439,64.953445 
	C569.095947,49.667000 569.097473,34.376911 568.935181,19.090544 
	C568.893372,15.144300 570.304504,13.792758 574.182739,13.930388 
	C580.821533,14.165982 587.474060,14.018265 594.568115,14.626112 
	C595.013367,19.160830 594.856201,23.108749 595.053894,27.038820 
	C595.243286,30.803385 597.054382,33.165371 601.256287,33.030704 
	C604.864807,32.915062 608.479187,32.983833 612.091003,32.971054 
M579.357056,41.611877 
	C580.205872,42.404533 580.990967,43.779694 581.915405,43.880775 
	C584.705383,44.185852 587.549500,43.997475 590.372498,43.998486 
	C594.515503,43.999969 598.658508,43.998871 603.848694,43.998871 
	C600.777954,40.745090 595.758423,40.371307 579.357056,41.611877 
M581.008789,47.040005 
	C580.416016,47.624542 579.823242,48.209084 579.230469,48.793629 
	C580.024475,49.189194 580.813538,49.916054 581.613220,49.927822 
	C587.919922,50.020676 594.229797,50.034874 600.535400,49.908318 
	C601.406189,49.890839 602.258850,48.968418 603.119873,48.464943 
	C602.971802,47.979862 602.823730,47.494778 602.675659,47.009693 
	C595.757080,47.009693 588.838501,47.009693 581.008789,47.040005 
M588.551880,55.998871 
	C601.496521,55.998871 601.496521,55.998871 602.671265,53.726772 
	C594.792786,51.794556 580.627014,52.739128 578.966187,55.998867 
	C582.072083,55.998867 584.824707,55.998867 588.551880,55.998871 
M591.097290,59.009705 
	C587.129944,59.009705 583.162659,59.009705 579.146301,59.009705 
	C579.251282,60.482658 579.257202,61.088432 579.299988,61.091042 
	C583.822754,61.367149 588.348328,61.597954 592.873718,61.831425 
	C592.581604,60.900936 592.289490,59.970448 591.097290,59.009705 
z"/>
<path fill="#416A9E" opacity="1.000000" stroke="none" 
	d="
M22.832857,29.977335 
	C21.833447,30.612753 20.834038,31.248173 19.549740,31.978004 
	C19.182980,28.256533 19.009222,24.439568 19.054041,20.625170 
	C19.080509,18.372534 19.698555,16.907106 22.718760,17.694824 
	C25.060461,18.305576 27.893709,18.588816 30.106886,17.836420 
	C36.178600,15.772260 40.750374,17.503721 45.124466,22.732660 
	C54.402905,23.238621 63.174625,23.196484 71.946342,23.154348 
	C77.066643,24.326048 74.321762,28.376659 74.815247,31.643282 
	C73.688759,31.732727 72.642899,31.391310 71.289230,30.594101 
	C71.120293,27.156425 69.586952,25.981726 66.724785,25.988863 
	C53.614117,26.021557 40.503124,26.039360 27.392710,25.972546 
	C24.530098,25.957958 23.031218,27.136435 22.832857,29.977335 
z"/>
<path fill="#416A9E" opacity="1.000000" stroke="none" 
	d="
M210.815170,31.642979 
	C209.688705,31.732452 208.642868,31.391167 207.289230,30.594097 
	C207.120300,27.156424 205.586960,25.981720 202.724792,25.988857 
	C189.614120,26.021555 176.503128,26.039362 163.392715,25.972544 
	C160.530090,25.957956 159.031219,27.136438 158.832855,29.977335 
	C157.833450,30.612753 156.834045,31.248173 155.549744,31.978004 
	C155.182968,28.256533 155.009186,24.439571 155.054016,20.625179 
	C155.080490,18.372561 155.698547,16.907101 158.718765,17.694820 
	C161.060455,18.305571 163.893692,18.588814 166.106873,17.836416 
	C172.178574,15.772261 176.750351,17.503717 181.124451,22.732632 
	C190.402908,23.238596 199.174637,23.196472 207.946381,23.154350 
	C213.066605,24.326021 210.321823,28.376495 210.815170,31.642979 
z"/>
<path fill="#416A9E" opacity="1.000000" stroke="none" 
	d="
M294.832855,29.977339 
	C293.833435,30.612757 292.834045,31.248175 291.549744,31.978008 
	C291.182983,28.256540 291.009216,24.439575 291.054047,20.625177 
	C291.080505,18.372522 291.698517,16.907114 294.718750,17.694824 
	C297.060455,18.305574 299.893707,18.588812 302.106873,17.836416 
	C308.178589,15.772248 312.750366,17.503727 317.124451,22.732649 
	C326.402893,23.238611 335.174622,23.196480 343.946320,23.154348 
	C349.066620,24.326042 346.321808,28.376629 346.815247,31.643276 
	C345.688782,31.732723 344.642883,31.391300 343.289246,30.594090 
	C343.120270,27.156431 341.586945,25.981722 338.724792,25.988857 
	C325.614136,26.021553 312.503113,26.039354 299.392700,25.972546 
	C296.530121,25.957960 295.031219,27.136444 294.832855,29.977339 
z"/>
<path fill="#D8D8D8" opacity="1.000000" stroke="none" 
	d="
M476.042725,32.613720 
	C472.479187,32.983818 468.864777,32.915062 465.256287,33.030712 
	C461.054352,33.165379 459.243347,30.803276 459.053925,27.038776 
	C458.856171,23.108717 459.013306,19.160799 459.016663,14.774757 
	C464.676880,20.304686 470.335693,26.280546 476.042725,32.613720 
z"/>
<path fill="#D8D8D8" opacity="1.000000" stroke="none" 
	d="
M612.042725,32.613731 
	C608.479187,32.983833 604.864807,32.915062 601.256287,33.030704 
	C597.054382,33.165371 595.243286,30.803385 595.053894,27.038820 
	C594.856201,23.108749 595.013367,19.160830 595.016724,14.774782 
	C600.676941,20.304707 606.335693,26.280560 612.042725,32.613731 
z"/>
<path fill="#878787" opacity="1.000000" stroke="none" 
	d="
M466.490173,81.325348 
	C466.878571,84.717789 466.878571,87.994965 466.878571,92.831650 
	C464.283081,91.156166 462.354919,89.911476 460.244781,88.549316 
	C462.432526,85.807938 464.267151,83.509010 466.490173,81.325348 
z"/>
<path fill="#878787" opacity="1.000000" stroke="none" 
	d="
M76.138130,86.124939 
	C76.138168,88.198341 76.138168,89.825996 76.138168,93.208839 
	C73.209778,91.179024 71.300987,89.855949 69.283310,88.457390 
	C71.504379,85.732376 73.345810,83.473152 75.805779,80.455040 
	C75.947334,82.680405 76.042717,84.179802 76.138130,86.124939 
z"/>
<path fill="#2F2F2F" opacity="1.000000" stroke="none" 
	d="
M449.444061,86.214371 
	C449.587372,88.134132 449.587372,89.730377 449.587372,91.543404 
	C446.193390,91.694313 443.142212,91.829979 439.844940,91.976585 
	C441.342926,89.428246 442.634857,87.230484 444.223846,84.527328 
	C445.720490,84.929283 447.510620,85.410065 449.444061,86.214371 
M446.452576,86.878891 
	C445.869812,87.671486 445.287048,88.464073 444.704285,89.256660 
	C445.098145,89.450371 445.492004,89.644081 445.885834,89.837784 
	C446.115906,89.008926 446.345978,88.180069 446.452576,86.878891 
z"/>
<path fill="#2F2F2F" opacity="1.000000" stroke="none" 
	d="
M576.069031,91.958740 
	C574.912659,91.906418 573.749084,91.919029 572.601196,91.790932 
	C566.493896,91.109390 566.495239,91.097183 568.842468,84.531097 
	C570.903687,84.958206 573.060974,85.405228 575.573547,86.326057 
	C575.975525,88.519493 576.022278,90.239113 576.069031,91.958740 
M570.286865,87.089241 
	C570.188782,87.946144 570.090698,88.803055 569.992615,89.659966 
	C570.439087,89.644508 570.885498,89.629059 571.331909,89.613602 
	C571.083191,88.643295 570.834473,87.672989 570.286865,87.089241 
z"/>
<path fill="#2F2F2F" opacity="1.000000" stroke="none" 
	d="
M52.985737,85.020172 
	C59.279766,84.732605 59.548862,85.050453 58.225628,91.525429 
	C55.256096,91.672394 52.222641,91.822517 48.798054,91.991997 
	C50.271866,89.624306 51.516605,87.624619 52.880802,85.312943 
	C53.000259,85.000954 52.985737,85.020172 52.985737,85.020172 
M53.881756,89.028542 
	C53.933052,89.180977 53.948570,89.364220 54.045792,89.477104 
	C54.141491,89.588219 54.320042,89.627975 54.462242,89.699051 
	C54.867203,88.755905 55.272163,87.812752 55.677120,86.869598 
	C55.334965,86.749138 54.992813,86.628677 54.650658,86.508209 
	C54.417011,87.188988 54.183361,87.869759 53.881756,89.028542 
z"/>
<path fill="#8E8E8E" opacity="1.000000" stroke="none" 
	d="
M576.465820,91.970596 
	C576.022278,90.239113 575.975525,88.519493 575.868896,86.373550 
	C575.910950,84.378487 576.013000,82.809723 576.181396,80.221146 
	C578.227539,83.457512 579.741211,85.851730 581.388306,88.456909 
	C580.130249,89.436935 578.496399,90.709694 576.465820,91.970596 
z"/>
<path fill="#8D8D8D" opacity="1.000000" stroke="none" 
	d="
M35.263695,92.369049 
	C34.689884,93.364624 34.408184,94.092018 34.126484,94.819405 
	C33.881248,94.803215 33.636013,94.787018 33.390778,94.770828 
	C33.390778,91.393082 33.390778,88.015335 33.390778,83.340157 
	C35.460274,85.135345 37.071270,86.532814 38.434208,87.715096 
	C37.459789,89.199806 36.507801,90.650337 35.263695,92.369049 
z"/>
<path fill="#8D8D8D" opacity="1.000000" stroke="none" 
	d="
M321.878296,86.378448 
	C322.975769,85.635620 324.323822,84.797859 325.095428,85.166527 
	C326.042145,85.618843 326.506958,87.079735 327.186829,88.114853 
	C325.921844,90.111458 324.436310,92.456154 322.950806,94.800850 
	C322.591614,94.798370 322.232422,94.795891 321.873230,94.793411 
	C321.873230,92.135094 321.873230,89.476784 321.878296,86.378448 
z"/>
<path fill="#8D8D8D" opacity="1.000000" stroke="none" 
	d="
M424.665344,84.200546 
	C426.566223,85.354034 428.057983,86.582382 429.460388,87.737144 
	C427.884888,90.169296 426.361694,92.520729 424.256256,95.771034 
	C424.256256,91.210800 424.256256,87.743103 424.665344,84.200546 
z"/>
<path fill="#2F2F2F" opacity="1.000000" stroke="none" 
	d="
M549.857422,87.078362 
	C551.708801,86.120476 553.470459,85.495605 555.232117,84.870728 
	C555.920044,86.864021 556.607910,88.857315 557.295837,90.850601 
	C556.822876,91.249840 556.349915,91.649078 555.877014,92.048317 
	C554.395813,89.518745 548.237305,95.277321 549.857422,87.078362 
M551.944458,88.561646 
	C552.118958,88.941422 552.293396,89.321198 552.467896,89.700974 
	C552.871094,88.754715 553.274292,87.808449 553.677490,86.862190 
	C553.356873,86.741783 553.036255,86.621376 552.715576,86.500977 
	C552.491882,87.023201 552.268250,87.545433 551.944458,88.561646 
z"/>
<path fill="#929292" opacity="1.000000" stroke="none" 
	d="
M171.892517,83.493912 
	C171.953171,82.576576 172.010635,82.087975 172.084839,81.457199 
	C173.901794,82.618149 175.649002,83.734543 178.306717,85.432716 
	C171.868073,84.350784 174.650375,89.514252 171.889328,91.706604 
	C171.889328,89.111946 171.889328,86.517296 171.892517,83.493912 
z"/>
<path fill="#929292" opacity="1.000000" stroke="none" 
	d="
M407.889160,88.703224 
	C407.888367,85.972466 407.888367,83.682693 407.888367,81.181534 
	C409.866913,82.509766 411.545349,83.636520 412.630646,84.365112 
	C411.276489,86.648338 409.832855,89.082367 408.229218,91.786179 
	C408.109894,90.856926 407.999908,90.000572 407.889160,88.703224 
z"/>
<path fill="#929292" opacity="1.000000" stroke="none" 
	d="
M19.320496,83.619568 
	C20.592207,83.976738 21.526846,84.128616 21.726103,84.160995 
	C20.251097,86.670380 18.811840,89.118942 17.244122,91.786064 
	C17.244122,88.224747 17.244122,84.798279 17.244122,79.954765 
	C18.221292,81.898369 18.602360,82.656319 19.320496,83.619568 
z"/>
<path fill="#5177A6" opacity="1.000000" stroke="none" 
	d="
M207.484344,23.097015 
	C199.174637,23.196472 190.402908,23.238596 181.326874,22.987301 
	C189.689163,22.809147 198.355728,22.924416 207.484344,23.097015 
z"/>
<path fill="#5177A6" opacity="1.000000" stroke="none" 
	d="
M343.484283,23.097015 
	C335.174622,23.196480 326.402893,23.238611 317.326904,22.987316 
	C325.689148,22.809153 334.355682,22.924417 343.484283,23.097015 
z"/>
<path fill="#5177A6" opacity="1.000000" stroke="none" 
	d="
M71.484299,23.097015 
	C63.174625,23.196484 54.402905,23.238621 45.326897,22.987328 
	C53.689156,22.809160 62.355701,22.924419 71.484299,23.097015 
z"/>
<path fill="#2F2F2F" opacity="1.000000" stroke="none" 
	d="
M615.453674,91.021255 
	C615.419434,89.008987 615.618408,87.183220 615.877563,84.805412 
	C617.279846,85.520790 619.013123,86.405045 621.848145,87.851357 
	C619.166504,89.312195 617.426758,90.259972 615.453674,91.021255 
z"/>
<path fill="#2F2F2F" opacity="1.000000" stroke="none" 
	d="
M479.353516,87.994812 
	C478.906647,86.900642 478.457184,86.101273 477.251160,83.956444 
	C480.296570,85.528938 482.034119,86.426132 484.719696,87.812828 
	C482.174988,89.354233 480.486847,90.376785 477.496155,92.188339 
	C478.517700,90.041069 478.934326,89.165337 479.353516,87.994812 
z"/>
<path fill="#2F2F2F" opacity="1.000000" stroke="none" 
	d="
M475.144440,88.588646 
	C475.024567,89.417130 474.871185,89.948814 474.717834,90.480492 
	C473.947144,89.366302 472.694427,88.296310 472.586700,87.121330 
	C472.522186,86.417595 474.248138,85.549675 476.044983,84.000687 
	C475.557373,86.240936 475.334167,87.266388 475.144440,88.588646 
z"/>
<path fill="#2F2F2F" opacity="1.000000" stroke="none" 
	d="
M612.228271,89.176239 
	C611.371460,89.131035 610.465942,88.800201 609.560486,88.469360 
	C610.269714,87.200806 610.978943,85.932259 611.688171,84.663712 
	C612.040710,84.860542 612.393250,85.057373 612.745850,85.254204 
	C612.557068,86.466339 612.368347,87.678482 612.228271,89.176239 
z"/>
<path fill="#B5B5B5" opacity="1.000000" stroke="none" 
	d="
M595.037476,85.588577 
	C595.333435,86.125832 595.629395,86.663086 595.549561,87.578766 
	C594.440735,88.044708 593.707642,88.132225 592.657837,88.177902 
	C591.918945,88.177322 591.496826,88.218582 590.791016,88.253540 
	C590.386597,88.783089 590.265808,89.318947 590.003845,89.995583 
	C589.862671,90.136360 589.583069,90.420639 589.583069,90.420639 
	C589.365417,89.094551 589.147766,87.768463 589.336609,86.031631 
	C591.507935,85.610100 593.272766,85.599335 595.037476,85.588577 
z"/>
<path fill="#B5B5B5" opacity="1.000000" stroke="none" 
	d="
M187.037506,85.588562 
	C187.333298,86.125694 187.629089,86.662827 187.549255,87.578529 
	C186.440598,88.044647 185.707565,88.132195 184.657806,88.177902 
	C183.918930,88.177322 183.496765,88.218582 182.790970,88.253540 
	C182.386581,88.783089 182.265793,89.318939 182.003845,89.995567 
	C181.862671,90.136345 181.583176,90.420738 181.583160,90.420738 
	C181.365540,89.094406 181.147903,87.768074 181.336975,86.031235 
	C183.508286,85.610008 185.272903,85.599289 187.037506,85.588562 
z"/>
<path fill="#242424" opacity="1.000000" stroke="none" 
	d="
M186.929825,85.328796 
	C185.272903,85.599289 183.508286,85.610008 181.355682,85.730049 
	C182.919174,85.582581 184.870667,85.325806 186.929825,85.328796 
z"/>
<path fill="#242424" opacity="1.000000" stroke="none" 
	d="
M594.929871,85.328773 
	C593.272766,85.599335 591.507935,85.610100 589.355225,85.730499 
	C590.918884,85.583076 592.870544,85.326027 594.929871,85.328773 
z"/>
<path fill="#121212" opacity="1.000000" stroke="none" 
	d="
M183.074585,88.259850 
	C183.496765,88.218582 183.918930,88.177322 184.776062,88.385803 
	C185.310425,89.087799 185.409821,89.540047 185.509216,89.992302 
	C184.925461,89.987633 184.341721,89.982964 183.433716,89.991570 
	C183.109482,90.004845 183.039459,89.937340 183.055481,89.658035 
	C183.072540,89.005775 183.073563,88.632812 183.074585,88.259850 
z"/>
<path fill="#363636" opacity="1.000000" stroke="none" 
	d="
M185.872238,90.180649 
	C185.409821,89.540047 185.310425,89.087799 185.092773,88.427650 
	C185.707565,88.132195 186.440598,88.044647 187.539276,87.898239 
	C187.348373,88.682571 186.791824,89.525780 185.872238,90.180649 
z"/>
<path fill="#121212" opacity="1.000000" stroke="none" 
	d="
M591.074646,88.259850 
	C591.496826,88.218582 591.918945,88.177322 592.776123,88.385788 
	C593.310486,89.087784 593.409912,89.540039 593.509277,89.992294 
	C592.925476,89.987625 592.341736,89.982956 591.433716,89.991562 
	C591.109497,90.004837 591.039490,89.937370 591.055542,89.658066 
	C591.072571,89.005791 591.073608,88.632820 591.074646,88.259850 
z"/>
<path fill="#363636" opacity="1.000000" stroke="none" 
	d="
M593.872314,90.180710 
	C593.409912,89.540039 593.310486,89.087784 593.092773,88.427643 
	C593.707642,88.132225 594.440735,88.044708 595.539612,87.898529 
	C595.348633,88.682961 594.791931,89.526047 593.872314,90.180710 
z"/>
<path fill="#B5B5B5" opacity="1.000000" stroke="none" 
	d="
M183.142319,89.968964 
	C182.795898,90.228706 182.416626,90.524323 181.810272,90.620338 
	C181.583176,90.420738 181.862671,90.136345 182.227325,90.016708 
	C182.591965,89.897072 183.039459,89.937340 183.039459,89.937340 
	C183.039459,89.937340 183.109482,90.004845 183.142319,89.968964 
z"/>
<path fill="#B5B5B5" opacity="1.000000" stroke="none" 
	d="
M591.142334,89.968948 
	C590.795837,90.228691 590.416565,90.524315 589.810181,90.620285 
	C589.583069,90.420639 589.862671,90.136360 590.227295,90.016731 
	C590.591980,89.897102 591.039490,89.937370 591.039490,89.937370 
	C591.039490,89.937370 591.109497,90.004837 591.142334,89.968948 
z"/>
<path fill="#2F2F2F" opacity="1.000000" stroke="none" 
	d="
M53.009903,84.993851 
	C53.019547,84.986755 52.748970,84.832146 52.748970,84.832146 
	C52.748970,84.832146 52.927010,84.862541 52.956375,84.941360 
	C52.985737,85.020172 53.000259,85.000954 53.009903,84.993851 
z"/>
<path fill="#CCCCCD" opacity="1.000000" stroke="none" 
	d="
M295.126495,30.299448 
	C295.031219,27.136444 296.530121,25.957960 299.392700,25.972546 
	C312.503113,26.039354 325.614136,26.021553 338.724792,25.988857 
	C341.586945,25.981722 343.120270,27.156431 342.962738,30.537758 
	C327.102722,30.831995 311.261444,30.726778 295.126495,30.299448 
z"/>
<path fill="#CCCCCD" opacity="1.000000" stroke="none" 
	d="
M159.126495,30.299442 
	C159.031219,27.136438 160.530090,25.957956 163.392715,25.972544 
	C176.503128,26.039362 189.614120,26.021555 202.724792,25.988857 
	C205.586960,25.981720 207.120300,27.156424 206.962738,30.537767 
	C191.102737,30.831999 175.261429,30.726774 159.126495,30.299442 
z"/>
<path fill="#CCCCCD" opacity="1.000000" stroke="none" 
	d="
M23.126495,30.299438 
	C23.031218,27.136435 24.530098,25.957958 27.392710,25.972546 
	C40.503124,26.039360 53.614117,26.021557 66.724785,25.988863 
	C69.586952,25.981726 71.120293,27.156425 70.962730,30.537766 
	C55.102726,30.831995 39.261429,30.726768 23.126495,30.299438 
z"/>
<path fill="#676767" opacity="1.000000" stroke="none" 
	d="
M463.625183,43.993698 
	C456.478333,43.793934 449.726135,44.432442 443.088715,43.605858 
	C443.109467,42.976063 443.130249,42.346264 443.151001,41.716469 
	C450.976501,41.716469 458.802002,41.716469 466.627502,41.716469 
	C466.776855,41.969376 466.926239,42.222282 467.075592,42.475185 
	C466.078979,42.980217 465.082367,43.485249 463.625183,43.993698 
z"/>
<path fill="#676767" opacity="1.000000" stroke="none" 
	d="
M454.018066,47.001129 
	C458.655884,47.118092 462.802002,47.235050 466.948120,47.352013 
	C462.507782,50.880543 445.612152,50.513664 441.915253,47.001129 
	C446.622620,47.001129 450.074493,47.001129 454.018066,47.001129 
z"/>
<path fill="#676767" opacity="1.000000" stroke="none" 
	d="
M447.296692,53.002163 
	C454.153442,53.001453 460.543671,53.001453 466.933868,53.001453 
	C466.906433,53.750313 466.878998,54.499168 466.851562,55.248028 
	C458.994904,55.248028 451.138245,55.248028 443.281586,55.248028 
	C443.182465,54.853058 443.083374,54.458088 442.984253,54.063118 
	C444.266205,53.709702 445.548187,53.356289 447.296692,53.002163 
z"/>
<path fill="#676767" opacity="1.000000" stroke="none" 
	d="
M443.722168,61.597157 
	C443.871735,60.591869 444.368988,59.177361 444.927460,59.152767 
	C449.175476,58.965706 453.435486,59.050331 457.785431,60.037823 
	C453.557037,63.028629 448.702698,61.638592 443.722168,61.597157 
z"/>
<path fill="#676767" opacity="1.000000" stroke="none" 
	d="
M579.743042,41.386421 
	C595.758423,40.371307 600.777954,40.745090 603.848694,43.998871 
	C598.658508,43.998871 594.515503,43.999969 590.372498,43.998486 
	C587.549500,43.997475 584.705383,44.185852 581.915405,43.880775 
	C580.990967,43.779694 580.205872,42.404533 579.743042,41.386421 
z"/>
<path fill="#676767" opacity="1.000000" stroke="none" 
	d="
M581.464355,47.024849 
	C588.838501,47.009693 595.757080,47.009693 602.675659,47.009693 
	C602.823730,47.494778 602.971802,47.979862 603.119873,48.464943 
	C602.258850,48.968418 601.406189,49.890839 600.535400,49.908318 
	C594.229797,50.034874 587.919922,50.020676 581.613220,49.927822 
	C580.813538,49.916054 580.024475,49.189194 579.230469,48.793625 
	C579.823242,48.209084 580.416016,47.624542 581.464355,47.024849 
z"/>
<path fill="#676767" opacity="1.000000" stroke="none" 
	d="
M588.064575,55.998871 
	C584.824707,55.998867 582.072083,55.998867 578.966187,55.998867 
	C580.627014,52.739128 594.792786,51.794556 602.671265,53.726772 
	C601.496521,55.998871 601.496521,55.998871 588.064575,55.998871 
z"/>
<path fill="#676767" opacity="1.000000" stroke="none" 
	d="
M591.547363,59.024834 
	C592.289490,59.970448 592.581604,60.900936 592.873718,61.831429 
	C588.348328,61.597954 583.822754,61.367149 579.299988,61.091042 
	C579.257202,61.088432 579.251282,60.482658 579.146301,59.009705 
	C583.162659,59.009705 587.129944,59.009705 591.547363,59.024834 
z"/>
<path fill="#131313" opacity="1.000000" stroke="none" 
	d="
M446.514313,87.115051 
	C446.345978,88.180069 446.115906,89.008926 445.885834,89.837784 
	C445.492004,89.644081 445.098145,89.450371 444.704285,89.256660 
	C445.287048,88.464073 445.869812,87.671486 446.514313,87.115051 
z"/>
<path fill="#131313" opacity="1.000000" stroke="none" 
	d="
M570.436279,86.895966 
	C570.834473,87.672989 571.083191,88.643295 571.331909,89.613602 
	C570.885498,89.629059 570.439087,89.644508 569.992615,89.659966 
	C570.090698,88.803055 570.188782,87.946144 570.436279,86.895966 
z"/>
<path fill="#131313" opacity="1.000000" stroke="none" 
	d="
M53.915733,88.789536 
	C54.183361,87.869759 54.417011,87.188988 54.650658,86.508209 
	C54.992813,86.628677 55.334965,86.749138 55.677120,86.869598 
	C55.272163,87.812752 54.867203,88.755905 54.462242,89.699051 
	C54.320042,89.627975 54.141491,89.588219 54.045792,89.477104 
	C53.948570,89.364220 53.933052,89.180977 53.915733,88.789536 
z"/>
<path fill="#131313" opacity="1.000000" stroke="none" 
	d="
M551.994507,88.314651 
	C552.268250,87.545433 552.491882,87.023201 552.715576,86.500977 
	C553.036255,86.621376 553.356873,86.741783 553.677490,86.862190 
	C553.274292,87.808449 552.871094,88.754715 552.467896,89.700974 
	C552.293396,89.321198 552.118958,88.941422 551.994507,88.314651 
z"/>
<path fill="#363636" opacity="1.000000" stroke="none" 
	d="
M591.055542,89.658066 
	C591.039490,89.937370 590.591980,89.897102 590.368530,89.875954 
	C590.265808,89.318947 590.386597,88.783089 590.791016,88.253540 
	C591.073608,88.632820 591.072571,89.005791 591.055542,89.658066 
z"/>
<path fill="#363636" opacity="1.000000" stroke="none" 
	d="
M183.055481,89.658035 
	C183.039459,89.937340 182.591965,89.897072 182.368500,89.875931 
	C182.265793,89.318939 182.386581,88.783089 182.790970,88.253540 
	C183.073563,88.632812 183.072540,89.005775 183.055481,89.658035 
z"/>
</svg>