<svg width="200" height="126" viewBox="0 0 200 126" fill="none" xmlns="http://www.w3.org/2000/svg">
<path d="M128.86 93.3581C113.945 117.163 146.907 109.633 166.929 102.245C167.473 102.044 168.055 102.004 168.622 102.129L193.13 107.535C195.215 107.995 197.09 106.192 196.584 104.118C193.436 91.221 186.913 80.1406 183.038 74.8544C182.411 73.9992 182.233 72.8987 182.6 71.9038C187.288 59.1786 194.138 36.7332 188.004 37.5C182.375 38.2035 174.788 41.2788 170.546 43.2571C169.584 43.7059 168.462 43.6435 167.554 43.0931C153.577 34.6216 124.735 24.2786 110.852 19.7739C110.291 19.592 109.808 19.2546 109.439 18.7945L100.018 7.01819C98.9301 5.65784 96.9158 5.50739 95.6375 6.69099L85.1551 16.3969C84.73 16.7906 84.1997 17.0474 83.6336 17.1704C74.7569 19.0984 59.6563 27.9119 43.7487 42.064C42.4656 40.5924 41.2503 39.4761 40.3876 38.7946C40.1343 38.5945 39.8278 38.4445 39.5188 38.3509C17.0024 31.531 17.2894 53.7576 20.5562 67.2797C20.8141 68.3475 21.6656 69.1561 22.735 69.4069L61.5038 78.5L128.86 93.3581Z" fill="white"/>
<path d="M128.86 93.3581C113.945 117.163 146.907 109.633 166.929 102.245C167.473 102.044 168.055 102.004 168.622 102.129L193.13 107.535C195.215 107.995 197.09 106.192 196.584 104.118C193.436 91.221 186.913 80.1406 183.038 74.8544C182.411 73.9992 182.233 72.8987 182.6 71.9038C187.288 59.1786 194.138 36.7332 188.004 37.5C182.375 38.2035 174.788 41.2788 170.546 43.2571C169.584 43.7059 168.462 43.6435 167.554 43.0931C153.577 34.6216 124.735 24.2786 110.852 19.7739C110.291 19.592 109.808 19.2546 109.439 18.7945L100.018 7.01819C98.9301 5.65784 96.9158 5.50739 95.6375 6.69099L85.1551 16.3969C84.73 16.7905 84.1997 17.0474 83.6336 17.1704C74.7569 19.0984 59.6563 27.9119 43.7487 42.064M128.86 93.3581L61.5038 78.5L22.735 69.4069C21.6656 69.1561 20.8141 68.3475 20.5562 67.2797C17.2894 53.7576 17.0024 31.531 39.5188 38.3509C39.8278 38.4445 40.1343 38.5945 40.3876 38.7946C41.2503 39.4761 42.4656 40.5924 43.7487 42.064M128.86 93.3581C129.615 92.1536 130.492 90.869 131.5 89.5M43.7487 42.064C45.4299 43.9923 47.2274 46.5306 48.5 49.5" stroke="black" stroke-width="4" stroke-linecap="round"/>
<path d="M85.5 59.5C86.288 61.2073 88.8766 62.4592 92.6787 61.152C94.4866 60.5305 96.5997 61.214 97.5472 62.8745C99.1077 65.609 101.674 68.3666 105.5 67" stroke="black" stroke-width="4" stroke-linecap="round"/>
<circle cx="130" cy="73" r="4" fill="black"/>
<circle cx="74" cy="56" r="4" fill="black"/>
<path d="M141 117L145.5 123" stroke="#C90829" stroke-width="4" stroke-linecap="round"/>
<path d="M119.5 111L112.5 113.5" stroke="#C90829" stroke-width="4" stroke-linecap="round"/>
<path d="M123.5 116.5V122.5" stroke="#C90829" stroke-width="4" stroke-linecap="round"/>
<ellipse cx="33.5" cy="55" rx="4.5" ry="5" fill="#FB98A0"/>
<ellipse cx="38" cy="47" rx="3" ry="2" fill="#FB98A0"/>
<ellipse cx="30" cy="44.5" rx="2" ry="2.5" fill="#FB98A0"/>
<circle cx="25.5" cy="51.5" r="2.5" fill="#FB98A0"/>
</svg>
