<svg width="200" height="126" viewBox="0 0 200 126" fill="none" xmlns="http://www.w3.org/2000/svg">
<path d="M188 37.5C182.372 38.2035 174.784 41.2788 170.542 43.2571C169.58 43.7059 168.458 43.6435 167.55 43.0931C153.573 34.6216 124.732 24.2786 110.848 19.7739C110.288 19.592 109.804 19.2546 109.436 18.7945L100.015 7.01821C98.9263 5.65785 96.912 5.50741 95.6337 6.69101L85.1513 16.397C84.7262 16.7906 84.2066 17.0477 83.6383 17.1604C70.6719 19.731 41.663 32.3224 22.5 64C3.1626 95.9659 39.3405 87.4066 60.6406 78.8486C61.207 78.621 61.8194 78.5704 62.4154 78.7019L138 95.375L193.127 107.535C195.212 107.995 197.086 106.192 196.58 104.118C193.432 91.221 186.909 80.1406 183.034 74.8544C182.407 73.9992 182.229 72.8987 182.596 71.9038C187.284 59.1786 194.134 36.7332 188 37.5Z" fill="white"/>
<path d="M138 95.375L193.127 107.535C195.212 107.995 197.086 106.192 196.58 104.118C193.432 91.221 186.909 80.1406 183.034 74.8544C182.407 73.9992 182.229 72.8987 182.596 71.9038C187.284 59.1786 194.134 36.7332 188 37.5C182.372 38.2035 174.784 41.2788 170.542 43.2571C169.58 43.7059 168.458 43.6435 167.55 43.0931C153.573 34.6216 124.732 24.2786 110.848 19.7739C110.288 19.592 109.804 19.2546 109.436 18.7945L100.015 7.01821C98.9263 5.65785 96.912 5.50741 95.6337 6.69101L85.1513 16.397C84.7262 16.7906 84.2066 17.0477 83.6383 17.1604C70.6719 19.731 41.663 32.3224 22.5 64C3.1626 95.9659 39.3405 87.4066 60.6406 78.8486C61.207 78.621 61.8194 78.5704 62.4154 78.7019L138 95.375ZM138 95.375C136.667 76.25 140.3 45.6 165.5 76" stroke="black" stroke-width="4" stroke-linecap="round"/>
<path d="M85.5 59.5C86.288 61.2073 88.8766 62.4592 92.6787 61.152C94.4866 60.5305 96.5997 61.214 97.5472 62.8745C99.1077 65.609 101.674 68.3666 105.5 67" stroke="black" stroke-width="4" stroke-linecap="round"/>
<circle cx="130" cy="73" r="4" fill="black"/>
<circle cx="74" cy="56" r="4" fill="black"/>
<path d="M12 91.5L9.5 94" stroke="#C90829" stroke-width="4" stroke-linecap="round"/>
<path d="M11 83L4 85.5" stroke="#C90829" stroke-width="4" stroke-linecap="round"/>
<path d="M29 95V101" stroke="#C90829" stroke-width="4" stroke-linecap="round"/>
<ellipse cx="151.5" cy="82" rx="4.5" ry="5" fill="#FB98A0"/>
<ellipse cx="156" cy="74" rx="3" ry="2" fill="#FB98A0"/>
<ellipse cx="148" cy="71.5" rx="2" ry="2.5" fill="#FB98A0"/>
<circle cx="144.5" cy="77.5" r="2.5" fill="#FB98A0"/>
</svg>
