<?xml version="1.0" encoding="UTF-8" standalone="no"?>
<svg
   version="1.1"
   id="Layer_1"
   x="0px"
   y="0px"
   width="100%"
   viewBox="0 0 240 240"
   enable-background="new 0 0 240 240"
   xml:space="preserve"
   sodipodi:docname="btop.svg"
   inkscape:version="1.4.3 (0d15f75042, 2025-12-25)"
   xmlns:inkscape="http://www.inkscape.org/namespaces/inkscape"
   xmlns:sodipodi="http://sodipodi.sourceforge.net/DTD/sodipodi-0.dtd"
   xmlns="http://www.w3.org/2000/svg"
   xmlns:svg="http://www.w3.org/2000/svg"><defs
   id="defs48" /><sodipodi:namedview
   id="namedview48"
   pagecolor="#ffffff"
   bordercolor="#000000"
   borderopacity="0.25"
   inkscape:showpageshadow="2"
   inkscape:pageopacity="0.0"
   inkscape:pagecheckerboard="0"
   inkscape:deskcolor="#d1d1d1"
   inkscape:zoom="1.2375"
   inkscape:cx="120"
   inkscape:cy="120"
   inkscape:window-width="1824"
   inkscape:window-height="1034"
   inkscape:window-x="0"
   inkscape:window-y="0"
   inkscape:window-maximized="1"
   inkscape:current-layer="Layer_1" />


<path
   fill="#FF0000"
   opacity="1.000000"
   stroke="none"
   d=" M49.458523,42.815029   C49.373653,29.182838 49.288784,15.550648 49.101959,1.459229   C86.020897,1.000000 123.041786,1.000000 160.531342,1.000000   C160.954254,7.038254 160.908524,13.076508 160.966431,19.965294   C161.025620,21.870346 160.981171,22.924864 160.895813,24.258085   C160.899597,24.718691 160.944244,24.900595 160.982559,25.323109   C160.976227,25.563721 160.917099,26.041466 160.775208,26.129623   C160.737000,26.481762 160.840683,26.745741 161.003204,27.238153   C161.062012,27.466587 161.247635,27.900309 161.130249,28.359814   C160.919403,33.551979 160.825943,38.284645 160.416351,42.999161   C159.679855,43.018661 159.259521,43.056305 158.389542,43.091965   C153.347687,43.091095 148.755463,43.092213 143.731049,43.073189   C142.729630,43.134930 142.160400,43.216808 141.155182,43.322342   C122.595367,43.402222 104.471504,43.458443 86.048470,43.343605   C85.523254,43.131378 85.297226,43.090202 84.649773,43.080124   C76.871017,43.257244 69.512962,43.374832 62.156704,43.563057   C59.140621,43.640228 56.128437,43.869888 52.958412,43.720596   C51.687737,43.212353 50.573132,43.013691 49.458523,42.815029  z"
   id="path3" />
<path
   fill="#2C2C2C"
   opacity="1.000000"
   stroke="none"
   d=" M54.468658,241.000000   C54.057259,232.320923 54.114517,223.641830 54.456783,214.477844   C55.483753,214.025436 56.225716,214.057953 56.970871,214.550293   C56.974091,221.341339 57.085835,227.675385 56.925041,234.002487   C56.849411,236.978531 57.785637,238.104858 60.898121,238.097656   C96.552589,238.015121 132.207428,238.007385 167.861816,238.106979   C171.250061,238.116455 172.116272,236.859360 172.049911,233.708740   C171.878021,225.548340 171.889725,217.380875 172.008438,209.218842   C172.070343,204.962738 171.006805,199.361298 173.241455,196.869843   C175.164169,194.726227 181.045761,196.132599 185.176987,195.972382   C185.509720,195.959488 185.848053,195.933929 186.175858,195.976013   C189.361649,196.385071 190.103210,194.762909 190.076096,191.868958   C189.957489,179.207596 190.012482,166.544662 189.975983,153.882370   C189.973709,153.093002 189.727814,152.304337 189.487961,150.876724   C186.219711,150.876724 183.102341,150.876724 179.929169,150.470154   C179.628937,143.842102 179.384491,137.620590 179.140060,131.399094   C179.140060,136.531113 179.140060,141.663116 179.140060,147.399353   C183.975983,147.399353 188.204910,147.399353 192.727280,147.399353   C192.727280,164.591217 192.727280,181.174744 192.727280,198.328979   C186.830109,198.328979 180.922104,198.328979 174.468735,198.328979   C174.468735,212.657974 174.468735,226.426849 174.734375,240.597870   C134.979111,241.000000 94.958214,241.000000 54.468658,241.000000  z"
   id="path4" />
<path
   fill="#860000"
   opacity="1.000000"
   stroke="none"
   d=" M179.200424,131.015671   C179.384491,137.620590 179.628937,143.842102 179.894806,150.839767   C179.942505,152.106506 179.968765,152.597092 179.898346,153.316986   C179.861420,154.318832 179.921188,155.091370 179.944946,156.331024   C179.667923,161.688156 179.426910,166.578171 179.159470,172.004532   C172.579819,172.004532 166.793182,172.004532 160.541260,171.994293   C155.704330,171.991760 151.332703,171.999451 146.877258,171.819748   C146.646423,171.392075 146.447235,171.208267 145.820312,171.054611   C144.698700,171.020721 143.952682,171.013138 143.145096,170.865387   C143.048065,170.488968 142.911438,170.360809 142.585785,169.862518   C142.397736,164.908524 142.297501,160.432785 142.400009,155.808014   C142.714691,155.169388 142.826630,154.679749 142.890701,153.962616   C142.720901,153.425110 142.498581,153.229385 142.155350,153.156128   C142.134857,153.164322 142.095642,153.184982 142.105499,152.786621   C142.069321,151.593018 142.023300,150.797760 142.054260,149.993896   C142.131210,149.985306 142.281174,149.946625 142.453217,149.803680   C142.825912,149.419632 142.933075,149.142303 142.831955,148.621887   C142.502228,148.000412 142.287277,147.585800 142.091858,146.692780   C142.110138,140.458984 142.108917,134.703598 142.420441,128.936768   C143.150314,128.936691 143.567413,128.948074 144.074600,129.134720   C144.447449,129.194977 144.730225,129.079971 145.250854,128.956024   C145.488693,128.947113 145.964737,128.943970 146.246582,129.246338   C150.030533,129.347260 153.532623,129.145813 157.272858,128.945801   C157.511002,128.947250 157.986984,128.964874 158.078934,129.139221   C158.436905,129.180267 158.702911,129.046982 159.111267,128.737213   C159.814651,128.710434 160.375687,128.860138 161.367905,129.006317   C163.229736,128.975296 164.660385,128.947784 166.445236,128.955017   C167.506653,128.935593 168.213852,128.881424 169.308716,128.882172   C171.238602,128.970840 172.780807,129.004593 174.323013,129.038345   C174.639908,129.095215 174.956802,129.152069 175.957199,129.526749   C177.363480,129.896683 178.086273,129.948807 178.809067,130.000931   C178.959641,130.211365 179.110214,130.421814 179.200424,131.015671  z"
   id="path5" />
<path
   fill="#D60000"
   opacity="1.000000"
   stroke="none"
   d=" M158.839172,43.093952   C159.259521,43.056305 159.679855,43.018661 160.760651,43.190224   C162.956726,43.466763 164.492355,43.534092 166.382217,43.697998   C167.457123,43.722340 168.177780,43.650105 169.278778,43.680904   C171.193893,43.770641 172.728668,43.757339 174.263458,43.744034   C175.855972,43.930050 177.448502,44.116062 179.427658,44.347240   C179.427658,50.171806 179.427658,55.851471 179.624634,62.345242   C179.868881,65.742195 179.916168,68.325043 179.890839,71.380615   C179.818207,76.452827 179.818207,81.052315 179.818207,86.238609   C173.212982,86.238609 167.274277,86.238609 160.850708,86.169998   C154.497116,86.058228 148.628372,86.015076 142.663315,85.516907   C142.430389,80.083618 142.293777,75.105354 142.163147,69.688782   C142.112000,67.801636 142.054840,66.352791 142.079102,64.556099   C142.124939,63.496235 142.089355,62.784214 142.131302,61.604416   C142.002930,55.190651 141.797043,49.244671 141.591156,43.298687   C142.160400,43.216808 142.729630,43.134930 144.013062,43.345901   C149.431229,43.457150 154.135208,43.275551 158.839172,43.093952  z"
   id="path6" />
<path
   fill="#2E2E2E"
   opacity="1.000000"
   stroke="none"
   d=" M179.963455,70.907890   C179.916168,68.325043 179.868881,65.742195 179.816650,62.730698   C183.944809,62.302048 188.077896,62.302048 192.601776,62.302048   C192.601776,79.096375 192.601776,95.612518 192.601776,112.992371   C188.027893,112.992371 183.279861,113.143433 178.547119,112.939690   C175.349808,112.802055 174.018356,113.751183 174.286011,117.159187   C174.570847,120.786087 174.319092,124.455132 174.312317,128.572052   C172.780807,129.004593 171.238602,128.970840 169.326202,128.430786   C168.961670,122.121864 169.038574,116.318039 168.940063,110.517197   C168.897125,107.989578 169.801010,106.895454 172.407883,106.981216   C176.216736,107.106522 180.044922,107.169037 183.838684,106.895309   C184.924515,106.816963 186.781647,105.523842 186.818222,104.720932   C187.074341,99.097275 187.007019,93.454460 186.854675,87.822868   C186.837708,87.195892 185.636749,86.600945 184.963348,85.525101   C184.941818,80.527824 184.941818,75.996605 184.941818,71.246643   C182.849350,71.104263 181.406403,71.006081 179.963455,70.907890  z"
   id="path7" />
<path
   fill="#322F2F"
   opacity="1.000000"
   stroke="none"
   d=" M174.265686,43.299965   C172.728668,43.757339 171.193893,43.770641 169.304474,43.248203   C168.954208,39.278069 168.962280,35.843678 168.962173,32.409283   C168.961929,25.127159 168.960190,25.127159 161.735779,24.783216   C161.483841,24.281200 161.248047,24.084929 160.936707,23.979383   C160.981171,22.924864 161.025620,21.870346 161.090881,20.421286   C165.251007,20.026745 169.390335,20.026745 174.267899,20.026745   C174.267899,27.720970 174.267899,35.288433 174.265686,43.299965  z"
   id="path8" />
<path
   fill="#850000"
   opacity="1.000000"
   stroke="none"
   d=" M178.690460,129.712692   C178.086273,129.948807 177.363480,129.896683 176.402100,129.714600   C176.966309,129.531250 177.769073,129.477844 178.690460,129.712692  z"
   id="path9" />
<path
   fill="#AF0101"
   opacity="1.000000"
   stroke="none"
   d=" M142.759628,85.971924   C148.628372,86.015076 154.497116,86.058228 160.754150,86.611008   C161.073853,101.083702 161.005280,115.046768 160.936707,129.009842   C160.375687,128.860138 159.814651,128.710434 158.866074,128.753616   C158.478516,128.946503 157.986984,128.964874 157.986984,128.964874   C157.986984,128.964874 157.511002,128.947250 156.972992,128.671158   C152.944916,128.578033 149.454819,128.761002 145.964737,128.943970   C145.964737,128.943970 145.488693,128.947113 144.993622,128.952454   C144.327194,128.958359 144.155853,128.958908 143.984528,128.959457   C143.567413,128.948074 143.150314,128.936691 141.941193,128.925751   C123.097862,128.890961 105.046539,128.855682 86.672363,128.562195   C75.480804,128.226013 64.612083,128.148071 53.385185,128.109756   C51.809296,128.063034 50.591599,127.976669 49.373898,127.890320   C49.328423,114.583946 49.282951,101.277565 49.490410,87.399490   C49.914219,86.549080 50.061489,86.258415 50.641945,85.971451   C62.801590,85.974648 74.504440,85.962181 86.605576,85.992546   C88.610802,86.011765 90.217758,85.988152 92.183594,86.014359   C93.020615,86.036316 93.498749,86.008476 94.353638,86.044388   C95.491272,86.171616 96.252167,86.235077 97.116798,86.416183   C97.220543,86.533829 97.654602,86.568916 97.654602,86.568916   C97.654602,86.568916 97.969810,86.240196 98.214546,86.184174   C98.793007,86.103188 99.126732,86.078224 99.882507,86.185181   C114.456253,86.202034 128.607941,86.086975 142.759628,85.971924  z"
   id="path10" />
<path
   fill="#5F0000"
   opacity="1.000000"
   stroke="none"
   d=" M146.961060,172.007141   C151.332703,171.999451 155.704330,171.991760 160.539520,172.462509   C161.002243,184.741577 160.778030,196.548538 161.111511,208.339706   C161.243301,212.999954 159.794052,214.145798 155.263077,214.121750   C124.184105,213.956772 93.103645,214.074478 61.747887,214.078857   C61.289806,214.084625 61.107502,214.112671 60.530991,214.106323   C59.080414,214.078094 58.024048,214.084274 56.967678,214.090454   C56.225716,214.057953 55.483753,214.025436 54.372169,214.018219   C52.960155,214.015320 51.917763,213.987091 50.480873,213.424957   C50.058846,200.993393 50.153217,189.093323 49.918564,177.199768   C49.859467,174.204330 50.915474,172.747040 54.083374,172.047989   C65.129845,171.999359 75.682526,171.976471 86.637817,171.943771   C88.682602,171.903885 90.324768,171.873810 92.305397,171.895355   C93.096581,171.911743 93.549301,171.876526 94.403564,171.871582   C95.609734,171.886948 96.414360,171.872025 97.586136,171.885010   C98.939705,171.959671 99.926125,172.006439 101.384079,171.999878   C114.908829,171.983047 127.962044,172.019577 141.270615,172.309570   C143.337662,172.377731 145.149368,172.192429 146.961060,172.007141  z"
   id="path11" />
<path
   fill="#860000"
   opacity="1.000000"
   stroke="none"
   d=" M86.235199,171.953598   C75.682526,171.976471 65.129845,171.999359 53.847519,171.944122   C51.851807,171.851868 50.585751,171.837738 49.319687,171.823593   C49.293873,171.432739 49.268055,171.041885 49.532104,170.020691   C49.911114,156.262070 50.000252,143.133789 50.438793,129.930603   C51.773254,129.260513 52.758312,128.665329 53.743370,128.070129   C64.612083,128.148071 75.480804,128.226013 86.509033,128.962006   C86.524094,143.731232 86.379639,157.842407 86.235199,171.953598  z"
   id="path12" />
<path
   fill="#D70000"
   opacity="1.000000"
   stroke="none"
   d=" M86.207291,85.949715   C74.504440,85.962181 62.801590,85.974648 50.429306,85.904251   C49.759876,85.821388 49.315586,85.848732 49.315586,85.848732   C49.299297,72.266129 49.283009,58.683521 49.720810,44.673710   C51.154762,44.174393 52.134621,44.102287 53.114479,44.030182   C56.128437,43.869888 59.140621,43.640228 62.156704,43.563057   C69.512962,43.374832 76.871017,43.257244 84.757301,43.320000   C85.606232,43.650841 85.926224,43.772900 86.228622,44.369568   C86.209785,58.546024 86.208542,72.247871 86.207291,85.949715  z"
   id="path13" />
<path
   fill="#8F5757"
   opacity="1.000000"
   stroke="none"
   d=" M49.158081,172.281876   C50.585751,171.837738 51.851807,171.851868 53.353722,171.969879   C50.915474,172.747040 49.859467,174.204330 49.918564,177.199768   C50.153217,189.093323 50.058846,200.993393 50.098530,213.346848   C49.715214,212.537918 48.982853,211.274872 48.976482,210.008179   C48.913986,197.585846 48.972401,185.162918 49.158081,172.281876  z"
   id="path14" />
<path
   fill="#8F5757"
   opacity="1.000000"
   stroke="none"
   d=" M50.089394,130.005493   C50.000252,143.133789 49.911114,156.262070 49.578415,169.729858   C49.220558,157.002167 49.106262,143.934982 49.313900,130.425690   C49.635830,129.983582 50.089394,130.005493 50.089394,130.005493  z"
   id="path15" />
<path
   fill="#DF5E5E"
   opacity="1.000000"
   stroke="none"
   d=" M50.438793,129.930603   C50.089394,130.005493 49.635830,129.983582 49.409935,129.961914   C49.154160,129.473190 49.124279,129.006134 49.234146,128.214691   C50.591599,127.976669 51.809296,128.063034 53.385185,128.109756   C52.758312,128.665329 51.773254,129.260513 50.438793,129.930603  z"
   id="path16" />
<path
   fill="#DF5E5E"
   opacity="1.000000"
   stroke="none"
   d=" M52.958412,43.720596   C52.134621,44.102287 51.154762,44.174393 49.807533,44.226421   C49.398888,43.973804 49.357605,43.741268 49.387424,43.161880   C50.573132,43.013691 51.687737,43.212353 52.958412,43.720596  z"
   id="path17" />
<path
   fill="#DF5E5E"
   opacity="1.000000"
   stroke="none"
   d=" M49.189095,86.146095   C49.315586,85.848732 49.759876,85.821388 49.972511,85.888588   C50.061489,86.258415 49.914219,86.549080 49.524715,86.934959   C49.224926,86.842567 49.143764,86.643013 49.189095,86.146095  z"
   id="path18" />
<path
   fill="#0C0808"
   opacity="1.000000"
   stroke="none"
   d=" M86.605576,85.992546   C86.208542,72.247871 86.209785,58.546024 86.287811,44.284477   C86.364586,43.724770 86.347649,43.514664 86.347649,43.514664   C104.471504,43.458443 122.595367,43.402222 141.155182,43.322342   C141.797043,49.244671 142.002930,55.190651 141.657974,61.597889   C126.173790,62.059372 111.239395,62.155910 96.307938,61.988937   C92.782158,61.949509 91.694679,63.102364 91.809654,66.554207   C92.024918,73.017319 91.841995,79.493690 91.824707,85.964546   C90.217758,85.988152 88.610802,86.011765 86.605576,85.992546  z"
   id="path19" />
<path
   fill="#140808"
   opacity="1.000000"
   stroke="none"
   d=" M166.027985,43.601425   C164.492355,43.534092 162.956726,43.466763 161.076797,43.208370   C160.825943,38.284645 160.919403,33.551979 161.546356,28.385712   C164.986191,27.585945 166.273117,28.674751 166.099030,31.782209   C165.878937,35.710941 166.034470,39.660725 166.027985,43.601425  z"
   id="path20" />
<path
   fill="#4B4646"
   opacity="1.000000"
   stroke="none"
   d=" M166.382217,43.698002   C166.034470,39.660725 165.878937,35.710941 166.099030,31.782209   C166.273117,28.674751 164.986191,27.585945 161.663742,27.926208   C161.247635,27.900309 161.062012,27.466587 161.034912,26.995102   C161.007812,26.523619 160.917099,26.041466 160.917099,26.041466   C160.917099,26.041466 160.976227,25.563721 161.192505,25.304565   C161.408783,25.045412 161.827454,24.998234 161.827454,24.998234   C168.960190,25.127159 168.961929,25.127159 168.962173,32.409283   C168.962280,35.843678 168.954208,39.278069 168.924133,43.145164   C168.177780,43.650105 167.457123,43.722340 166.382217,43.698002  z"
   id="path21" />
<path
   fill="#960505"
   opacity="1.000000"
   stroke="none"
   d=" M158.389542,43.091965   C154.135208,43.275551 149.431229,43.457150 144.445251,43.366039   C148.755463,43.092213 153.347687,43.091095 158.389542,43.091965  z"
   id="path22" />
<path
   fill="#960505"
   opacity="1.000000"
   stroke="none"
   d=" M161.735779,24.783216   C161.827454,24.998234 161.408783,25.045412 161.198837,25.063953   C160.944244,24.900595 160.899597,24.718691 160.895813,24.258085   C161.248047,24.084929 161.483841,24.281200 161.735779,24.783216  z"
   id="path23" />
<path
   fill="#960505"
   opacity="1.000000"
   stroke="none"
   d=" M160.775208,26.129623   C160.917099,26.041466 161.007812,26.523619 160.976105,26.766670   C160.840683,26.745741 160.737000,26.481762 160.775208,26.129623  z"
   id="path24" />
<path
   fill="#960505"
   opacity="1.000000"
   stroke="none"
   d=" M86.048470,43.343605   C86.347649,43.514664 86.364586,43.724770 86.305397,43.809864   C85.926224,43.772900 85.606232,43.650841 85.178719,43.288906   C85.297226,43.090202 85.523254,43.131378 86.048470,43.343605  z"
   id="path25" />
<path
   fill="#0B0B0B"
   opacity="1.000000"
   stroke="none"
   d=" M56.970871,214.550293   C58.024048,214.084274 59.080414,214.078094 60.366268,214.472382   C60.391388,220.502579 60.299980,226.139557 59.939640,231.759293   C59.728642,235.049911 60.966728,236.053665 64.223145,236.044479   C97.549622,235.950439 130.876572,235.947479 164.203049,236.041870   C167.981476,236.052582 169.177887,234.564178 169.049759,230.974091   C168.847839,225.315414 168.973480,219.645050 168.973877,213.513229   C168.990631,208.558258 168.993988,204.069702 168.997253,199.581146   C169.002029,193.011719 169.002014,193.011612 175.342056,193.005356   C178.500626,193.002243 181.670151,193.147232 184.811676,192.914322   C185.869888,192.835846 187.744629,191.791794 187.740250,191.200195   C187.693024,184.803680 187.345245,178.409409 187.129532,171.600647   C187.516342,165.332199 187.853180,159.477615 188.220825,153.087662   C184.861725,153.087662 182.428391,153.087662 179.995041,153.087662   C179.968765,152.597092 179.942505,152.106506 179.950607,151.246338   C183.102341,150.876724 186.219711,150.876724 189.487961,150.876724   C189.727814,152.304337 189.973709,153.093002 189.975983,153.882370   C190.012482,166.544662 189.957489,179.207596 190.076096,191.868958   C190.103210,194.762909 189.361649,196.385071 186.175858,195.976013   C185.848053,195.933929 185.509720,195.959488 185.176987,195.972382   C181.045761,196.132599 175.164169,194.726227 173.241455,196.869843   C171.006805,199.361298 172.070343,204.962738 172.008438,209.218842   C171.889725,217.380875 171.878021,225.548340 172.049911,233.708740   C172.116272,236.859360 171.250061,238.116455 167.861816,238.106979   C132.207428,238.007385 96.552589,238.015121 60.898121,238.097656   C57.785637,238.104858 56.849411,236.978531 56.925041,234.002487   C57.085835,227.675385 56.974091,221.341339 56.970871,214.550293  z"
   id="path26" />
<path
   fill="#0A0808"
   opacity="1.000000"
   stroke="none"
   d=" M62.023663,214.101151   C93.103645,214.074478 124.184105,213.956772 155.263077,214.121750   C159.794052,214.145798 161.243301,212.999954 161.111511,208.339706   C160.778030,196.548538 161.002243,184.741577 161.004807,172.472748   C166.793182,172.004532 172.579819,172.004532 179.159470,172.004532   C179.426910,166.578171 179.667923,161.688156 180.380081,156.365952   C184.103622,155.488998 185.240662,156.923843 185.047684,160.138657   C184.831223,163.744598 185.019424,167.374832 185.013885,171.463196   C184.993958,176.732101 184.882706,181.535690 185.030991,186.331268   C185.117691,189.135727 184.047333,190.189682 181.267029,190.064545   C177.798004,189.908386 174.301285,190.231277 170.844742,189.971680   C167.281021,189.704041 165.746689,190.703247 165.937714,194.601227   C166.253342,201.041977 166.064087,207.507477 166.063507,214.432755   C166.027512,219.226166 165.731964,223.572556 166.083115,227.866058   C166.437088,232.193802 164.678741,233.117508 160.676743,233.068253   C144.383774,232.867661 128.086914,232.984024 111.791489,232.983856   C96.992577,232.983704 82.192146,232.866562 67.395737,233.059082   C63.229305,233.113281 61.717072,231.691299 61.963741,227.566269   C62.231247,223.092712 62.023918,218.590729 62.023663,214.101151  z"
   id="path27" />
<path
   fill="#0B0909"
   opacity="1.000000"
   stroke="none"
   d=" M86.637817,171.943771   C86.379639,157.842407 86.524094,143.731232 86.831879,129.220230   C105.046539,128.855682 123.097862,128.890961 141.628448,128.937225   C142.108917,134.703598 142.110138,140.458984 141.829681,146.734253   C125.194267,147.254166 108.840530,147.254166 91.966927,147.254166   C91.966927,156.302414 91.966927,164.073090 91.966927,171.843750   C90.324768,171.873810 88.682602,171.903885 86.637817,171.943771  z"
   id="path28" />

<path
   fill="#0D0909"
   opacity="1.000000"
   stroke="none"
   d=" M161.367905,129.006317   C161.005280,115.046768 161.073853,101.083702 161.239014,86.679619   C167.274277,86.238609 173.212982,86.238609 179.818207,86.238609   C179.818207,81.052315 179.818207,76.452827 179.890839,71.380615   C181.406403,71.006081 182.849350,71.104263 184.941818,71.246643   C184.941818,75.996605 184.941818,80.527824 184.961472,85.994553   C184.981125,92.814095 184.981125,98.698143 184.981125,105.135361   C178.303223,105.135361 172.434540,105.135361 166.091019,105.135361   C166.091019,113.442719 166.091019,121.181496 166.091019,128.920273   C164.660385,128.947784 163.229736,128.975296 161.367905,129.006317  z"
   id="path30" />
<path
   fill="#101010"
   opacity="1.000000"
   stroke="none"
   d=" M97.218987,171.857086   C96.414360,171.872025 95.609734,171.886948 94.409935,171.419952   C94.019707,165.969513 94.325935,160.977753 93.945145,156.038971   C93.562004,151.069595 95.600662,149.869370 100.243683,149.949951   C114.151009,150.191315 128.065567,150.015488 141.977295,150.002502   C142.023300,150.797760 142.069321,151.593018 141.628754,152.763977   C126.590851,153.139679 112.039543,153.139679 97.218987,153.139679   C97.218987,159.927429 97.218987,165.892258 97.218987,171.857086  z"
   id="path31" />

<path
   fill="#343333"
   opacity="1.000000"
   stroke="none"
   d=" M142.054260,149.993896   C128.065567,150.015488 114.151009,150.191315 100.243683,149.949951   C95.600662,149.869370 93.562004,151.069595 93.945145,156.038971   C94.325935,160.977753 94.019707,165.969513 94.008392,171.389679   C93.549301,171.876526 93.096581,171.911743 92.305397,171.895355   C91.966927,164.073090 91.966927,156.302414 91.966927,147.254166   C108.840530,147.254166 125.194267,147.254166 141.810181,147.212677   C142.287277,147.585800 142.502228,148.000412 142.642334,148.758759   C142.318481,149.331894 142.223053,149.613281 142.281174,149.946625   C142.281174,149.946625 142.131210,149.985306 142.054260,149.993896  z"
   id="path33" />
<path
   fill="#3D3C3C"
   opacity="1.000000"
   stroke="none"
   d=" M166.445236,128.955017   C166.091019,121.181496 166.091019,113.442719 166.091019,105.135361   C172.434540,105.135361 178.303223,105.135361 184.981125,105.135361   C184.981125,98.698143 184.981125,92.814095 184.983002,86.460594   C185.636749,86.600945 186.837708,87.195892 186.854675,87.822868   C187.007019,93.454460 187.074341,99.097275 186.818222,104.720932   C186.781647,105.523842 184.924515,106.816963 183.838684,106.895309   C180.044922,107.169037 176.216736,107.106522 172.407883,106.981216   C169.801010,106.895454 168.897125,107.989578 168.940063,110.517197   C169.038574,116.318039 168.961670,122.121864 168.938522,128.375870   C168.213852,128.881424 167.506653,128.935593 166.445236,128.955017  z"
   id="path34" />
<path
   fill="#393636"
   opacity="1.000000"
   stroke="none"
   d=" M185.031555,170.994507   C185.019424,167.374832 184.831223,163.744598 185.047684,160.138657   C185.240662,156.923843 184.103622,155.488998 180.416092,155.898834   C179.921188,155.091370 179.861420,154.318832 179.898346,153.316986   C182.428391,153.087662 184.861725,153.087662 188.220825,153.087662   C187.853180,159.477615 187.516342,165.332199 186.860352,171.496902   C186.037979,171.536179 185.534760,171.265335 185.031555,170.994507  z"
   id="path35" />
<path
   fill="#850000"
   opacity="1.000000"
   stroke="none"
   d=" M146.246582,129.246338   C149.454819,128.761002 152.944916,128.578033 156.734863,128.669708   C153.532623,129.145813 150.030533,129.347260 146.246582,129.246338  z"
   id="path36" />
<path
   fill="#5B4848"
   opacity="1.000000"
   stroke="none"
   d=" M141.270615,172.309570   C141.418259,171.611679 141.821259,171.167282 142.448944,170.531830   C142.911438,170.360809 143.048065,170.488968 143.248566,171.164795   C144.341049,171.429871 145.268494,171.255402 146.195938,171.080917   C146.447235,171.208267 146.646423,171.392075 146.877258,171.819733   C145.149368,172.192429 143.337662,172.377731 141.270615,172.309570  z"
   id="path37" />
<path
   fill="#850000"
   opacity="1.000000"
   stroke="none"
   d=" M145.820312,171.054611   C145.268494,171.255402 144.341049,171.429871 143.310150,171.304962   C143.952682,171.013138 144.698700,171.020721 145.820312,171.054611  z"
   id="path38" />
<path
   fill="#850000"
   opacity="1.000000"
   stroke="none"
   d=" M142.890701,153.962616   C142.649872,154.061020 142.424545,153.860703 142.219238,153.368561   C142.498581,153.229385 142.720901,153.425110 142.890701,153.962616  z"
   id="path39" />
<path
   fill="#850000"
   opacity="1.000000"
   stroke="none"
   d=" M142.453217,149.803680   C142.223053,149.613281 142.318481,149.331894 142.757111,148.965622   C142.933075,149.142303 142.825912,149.419632 142.453217,149.803680  z"
   id="path40" />
<path
   fill="#850000"
   opacity="1.000000"
   stroke="none"
   d=" M158.078934,129.139221   C157.986984,128.964874 158.478516,128.946503 158.723724,128.930099   C158.702911,129.046982 158.436905,129.180267 158.078934,129.139221  z"
   id="path41" />
<path
   fill="#850000"
   opacity="1.000000"
   stroke="none"
   d=" M144.074600,129.134720   C144.155853,128.958908 144.327194,128.958359 144.755768,128.961380   C144.730225,129.079971 144.447449,129.194977 144.074600,129.134720  z"
   id="path42" />

<path
   fill="#2A2A2A"
   opacity="1.000000"
   stroke="none"
   d=" M142.163147,69.688782   C128.119400,70.127090 114.081665,70.127090 99.525002,70.127090   C99.525002,75.560471 99.525002,80.335365 99.492729,85.581757   C99.126732,86.078224 98.793007,86.103188 97.971909,86.139252   C97.484528,86.150345 97.013054,86.298538 97.013054,86.298538   C96.252167,86.235077 95.491272,86.171616 94.358147,85.577629   C93.987053,79.909569 94.204475,74.759911 93.917679,69.638489   C93.706223,65.862350 95.075340,64.835991 98.744591,64.879105   C113.160393,65.048447 127.579681,64.921120 141.997681,64.903946   C142.054840,66.352791 142.112000,67.801636 142.163147,69.688782  z"
   id="path44" />
<path
   fill="#444444"
   opacity="1.000000"
   stroke="none"
   d=" M142.079102,64.556099   C127.579681,64.921120 113.160393,65.048447 98.744591,64.879105   C95.075340,64.835991 93.706223,65.862350 93.917679,69.638489   C94.204475,74.759911 93.987053,79.909569 93.981400,85.513870   C93.498749,86.008476 93.020615,86.036316 92.183594,86.014359   C91.841995,79.493690 92.024918,73.017319 91.809654,66.554207   C91.694679,63.102364 92.782158,61.949509 96.307938,61.988937   C111.239395,62.155910 126.173790,62.059372 141.580444,62.065670   C142.089355,62.784214 142.124939,63.496235 142.079102,64.556099  z"
   id="path45" />
<path
   fill="#960505"
   opacity="1.000000"
   stroke="none"
   d=" M97.116798,86.416183   C97.013054,86.298538 97.484528,86.150345 97.727173,86.195267   C97.969810,86.240196 97.654602,86.568916 97.654602,86.568916   C97.654602,86.568916 97.220543,86.533829 97.116798,86.416183  z"
   id="path46" />
<path
   fill="#202020"
   opacity="1.000000"
   stroke="none"
   d=" M61.747887,214.078857   C62.023918,218.590729 62.231247,223.092712 61.963741,227.566269   C61.717072,231.691299 63.229305,233.113281 67.395737,233.059082   C82.192146,232.866562 96.992577,232.983704 111.791489,232.983856   C128.086914,232.984024 144.383774,232.867661 160.676743,233.068253   C164.678741,233.117508 166.437088,232.193802 166.083115,227.866058   C165.731964,223.572556 166.027512,219.226166 166.421234,214.444962   C167.522156,213.984528 168.241302,213.982086 168.960449,213.979645   C168.973480,219.645050 168.847839,225.315414 169.049759,230.974091   C169.177887,234.564178 167.981476,236.052582 164.203049,236.041870   C130.876572,235.947479 97.549622,235.950439 64.223145,236.044479   C60.966728,236.053665 59.728642,235.049911 59.939640,231.759293   C60.299980,226.139557 60.391388,220.502579 60.760475,214.506775   C61.107502,214.112671 61.289806,214.084625 61.747887,214.078857  z"
   id="path47" />
<path
   fill="#2B2B2B"
   opacity="1.000000"
   stroke="none"
   d=" M168.973877,213.513229   C168.241302,213.982086 167.522156,213.984528 166.445297,213.974747   C166.064087,207.507477 166.253342,201.041977 165.937714,194.601227   C165.746689,190.703247 167.281021,189.704041 170.844742,189.971680   C174.301285,190.231277 177.798004,189.908386 181.267029,190.064545   C184.047333,190.189682 185.117691,189.135727 185.030991,186.331268   C184.882706,181.535690 184.993958,176.732101 185.013885,171.463196   C185.534760,171.265335 186.037979,171.536179 186.810364,171.910767   C187.345245,178.409409 187.693024,184.803680 187.740250,191.200195   C187.744629,191.791794 185.869888,192.835846 184.811676,192.914322   C181.670151,193.147232 178.500626,193.002243 175.342056,193.005356   C169.002014,193.011612 169.002029,193.011719 168.997253,199.581146   C168.993988,204.069702 168.990631,208.558258 168.973877,213.513229  z"
   id="path48" />
</svg>
