<svg xmlns="http://www.w3.org/2000/svg" height="24px" viewBox="0 -960 960 960" width="24px"><path fill="currentColor" d="M480-80q-83 0-156-31.5T197-197q-54-54-85.5-127T80-480q0-83 31.5-156T197-763q54-54 127-85.5T480-880q17 0 28.5 11.5T520-840q0 17-11.5 28.5T480-800q-133 0-226.5 93.5T160-480q0 133 93.5 226.5T480-160q133 0 226.5-93.5T800-480q0-17 11.5-28.5T840-520q17 0 28.5 11.5T880-480q0 83-31.5 156T763-197q-54 54-127 85.5T480-80Zm-40-360v-440q0-17 11.5-28.5T480-920q17 0 28.5 11.5T520-880v440q0 17-11.5 28.5T480-400q-17 0-28.5-11.5T440-440Z"/></svg>