<svg version="1.1" id="Layer_1" xmlns="http://www.w3.org/2000/svg" xmlns:xlink="http://www.w3.org/1999/xlink" x="0px" y="0px"
	 width="100%" viewBox="0 0 645 107" enable-background="new 0 0 645 107" xml:space="preserve">
<path fill="#DADADA" opacity="1.000000" stroke="none" 
	d="
M482.000000,108.000000 
	C321.386566,108.000000 161.273148,108.000000 1.079863,108.000000 
	C1.079863,72.398582 1.079863,36.796940 1.079863,1.097647 
	C216.000000,1.097647 431.000000,1.097647 645.972717,1.097647 
	C645.972717,36.726765 645.972717,72.363396 645.972717,108.000000 
	C591.463623,108.000000 536.981812,108.000000 482.000000,108.000000 
M179.742401,89.963242 
	C180.296143,89.956917 180.849869,89.950600 182.169830,90.206375 
	C182.748260,89.417473 183.326675,88.628571 183.921204,87.199249 
	C183.625046,86.660049 183.328888,86.120850 182.851944,85.039589 
	C180.892578,85.303444 178.933228,85.567299 176.932312,86.432762 
	C177.156296,87.754051 177.380280,89.075340 178.043900,90.796494 
	C178.421402,90.509018 178.798904,90.221542 179.742401,89.963242 
M590.271301,90.238335 
	C590.816040,89.438950 591.360779,88.639572 591.921631,87.199646 
	C591.625366,86.660316 591.329163,86.120987 590.851990,85.039619 
	C588.892700,85.303406 586.933350,85.567192 584.932434,86.432610 
	C585.156372,87.753952 585.380249,89.075287 586.043884,90.796501 
	C586.421448,90.509033 586.798950,90.221573 587.759033,89.979607 
	C588.343201,89.984329 588.927429,89.989052 590.271301,90.238335 
M546.909607,84.789101 
	C546.909607,84.789101 546.624329,84.762001 546.624329,84.762001 
	C546.624329,84.762001 547.014221,84.989571 546.744202,85.642494 
	C544.030334,91.381783 544.030334,91.381783 552.216797,91.509834 
	C553.748962,85.418640 553.175903,84.706619 546.909607,84.789101 
M48.909504,84.789352 
	C48.909504,84.789352 48.624680,84.761986 48.624680,84.761986 
	C48.624680,84.761986 49.014355,84.989502 48.752384,85.629066 
	C47.478756,87.647598 46.205132,89.666138 44.730358,92.003464 
	C48.138023,91.839531 51.310097,91.686928 55.151512,91.502136 
	C54.770603,88.975571 54.449490,86.845604 54.135517,84.763039 
	C51.946903,84.870094 50.467915,84.942436 48.909504,84.789352 
M439.909546,84.789345 
	C439.909546,84.789345 439.624695,84.761963 439.624695,84.761963 
	C439.624695,84.761963 440.014343,84.989502 439.752411,85.629082 
	C438.478760,87.647621 437.205139,89.666161 435.730377,92.003448 
	C439.137756,91.839546 442.309967,91.686951 446.151520,91.502159 
	C445.770691,88.975609 445.449615,86.845642 445.135681,84.763008 
	C442.947357,84.870056 441.468170,84.942413 439.909546,84.789345 
M564.909424,84.789330 
	C564.909424,84.789330 564.624573,84.761986 564.624573,84.761986 
	C564.624573,84.761986 565.014282,84.989502 564.744995,85.642693 
	C564.143005,87.762466 560.930237,90.354805 565.416199,91.652672 
	C567.490051,92.252693 569.843628,91.885933 572.864380,91.980949 
	C574.746826,90.669151 576.629272,89.357353 577.850159,88.506546 
	C575.944275,85.864288 574.260864,83.530411 572.160889,80.619148 
	C572.015991,82.822556 571.913208,84.385063 571.199036,85.872459 
	C569.128967,85.586571 567.058960,85.300674 564.909424,84.789330 
M607.897644,32.301594 
	C602.268005,26.869465 596.638306,21.437336 590.764709,15.243584 
	C589.591675,14.832072 588.426270,14.092628 587.244324,14.065130 
	C581.773438,13.937853 576.295898,14.101716 570.824890,13.978133 
	C566.534180,13.881212 564.939575,15.905209 564.964600,20.052261 
	C565.057922,35.477852 564.943481,50.904903 565.090393,66.329651 
	C565.105164,67.886879 566.359375,69.432304 567.968079,70.991966 
	C580.965698,70.989113 593.963318,70.986259 607.648926,70.589256 
	C608.099243,68.906212 608.915649,67.228203 608.938904,65.539284 
	C609.066284,56.255554 609.046326,46.968689 608.954224,37.684113 
	C608.938599,36.113255 608.325806,34.548317 607.897644,32.301594 
M471.897491,32.301647 
	C466.267883,26.869518 460.638245,21.437386 454.764709,15.243631 
	C453.591675,14.832106 452.426270,14.092632 451.244293,14.065132 
	C445.773468,13.937848 440.295898,14.101640 434.824890,13.978156 
	C430.534302,13.881316 428.939850,15.904747 428.964996,20.052303 
	C429.058533,35.477905 428.943939,50.904976 429.090759,66.329758 
	C429.105560,67.886948 430.359619,69.432343 431.968170,70.991966 
	C444.965790,70.989113 457.963409,70.986259 471.649017,70.589218 
	C472.098969,68.906181 472.914886,67.228157 472.938049,65.539268 
	C473.065399,56.255524 473.045441,46.968658 472.953369,37.684078 
	C472.937805,36.113235 472.325500,34.548309 471.897491,32.301647 
M15.014533,33.003822 
	C15.010834,42.668465 15.128701,52.335426 14.944142,61.996613 
	C14.869370,65.910789 16.342783,67.299316 20.214180,67.265762 
	C35.376549,67.134346 50.541340,67.138954 65.703827,67.263710 
	C69.500427,67.294952 71.136986,66.053665 71.054314,62.069286 
	C70.846954,52.076370 70.932091,42.077389 71.000854,31.184792 
	C71.016304,23.045242 71.016304,23.044809 62.759140,23.043459 
	C57.442005,23.042587 52.117615,22.873720 46.810200,23.100832 
	C43.069210,23.260916 40.184334,22.255466 37.452129,19.552525 
	C35.997116,18.113092 33.434139,17.377419 31.283958,17.150204 
	C27.668758,16.768171 23.976208,17.193336 20.330555,17.003384 
	C16.573406,16.807619 14.692086,18.106482 14.954739,22.118601 
	C15.171400,25.428185 15.064817,28.758928 15.014533,33.003822 
M151.014526,33.003822 
	C151.010834,42.668453 151.128693,52.335407 150.944153,61.996582 
	C150.869385,65.910736 152.342758,67.299316 156.214172,67.265755 
	C171.376541,67.134338 186.541336,67.138962 201.703827,67.263710 
	C205.500412,67.294945 207.137009,66.053696 207.054321,62.069279 
	C206.846939,52.076363 206.932083,42.077374 207.000870,31.184778 
	C207.016296,23.045242 207.016296,23.044809 198.759125,23.043459 
	C193.441986,23.042587 188.117615,22.873720 182.810196,23.100832 
	C179.069214,23.260912 176.184341,22.255463 173.452133,19.552517 
	C171.997116,18.113079 169.434143,17.377420 167.283951,17.150204 
	C163.668747,16.768171 159.976212,17.193342 156.330551,17.003382 
	C152.573395,16.807617 150.692078,18.106485 150.954727,22.118601 
	C151.171402,25.428183 151.064819,28.758926 151.014526,33.003822 
M343.000854,31.184784 
	C343.016327,23.045242 343.016327,23.044809 334.759125,23.043457 
	C329.441986,23.042587 324.117584,22.873713 318.810181,23.100830 
	C315.069214,23.260916 312.184326,22.255445 309.452118,19.552534 
	C307.997101,18.113100 305.434143,17.377420 303.283966,17.150202 
	C299.668793,16.768169 295.976227,17.193336 292.330566,17.003384 
	C288.573425,16.807623 286.692108,18.106468 286.954742,22.118601 
	C287.171417,25.428181 287.064819,28.758923 287.014557,33.003819 
	C287.010834,42.668457 287.128632,52.335423 286.944092,61.996605 
	C286.869354,65.910736 288.342773,67.299316 292.214172,67.265762 
	C307.376556,67.134338 322.541351,67.138954 337.703827,67.263710 
	C341.500427,67.294945 343.136993,66.053665 343.054321,62.069283 
	C342.846985,52.076366 342.932068,42.077381 343.000854,31.184784 
M71.639839,91.773155 
	C71.828552,88.291283 72.017265,84.809410 72.270729,80.132835 
	C69.290726,83.519493 67.270882,85.814972 64.939903,88.464043 
	C66.928230,89.622246 68.860565,90.747833 71.639839,91.773155 
M460.958282,91.900032 
	C461.640289,91.621429 462.901672,91.368195 462.915161,91.060326 
	C463.058685,87.781570 463.004272,84.494156 463.004272,80.270981 
	C460.173553,83.594963 458.201965,85.910103 456.760864,87.602287 
	C457.992249,89.167809 459.065155,90.531868 460.958282,91.900032 
M35.445274,88.283485 
	C33.573170,86.742142 31.701065,85.200806 29.320347,83.240715 
	C29.320347,87.792328 29.320347,91.253677 29.320347,95.048859 
	C31.431192,92.538513 33.179207,90.459671 35.445274,88.283485 
M426.445282,88.283463 
	C424.573181,86.742119 422.701080,85.200768 420.320312,83.240616 
	C420.320312,87.799133 420.320312,91.258575 420.320312,95.048851 
	C422.431183,92.538506 424.179199,90.459679 426.445282,88.283463 
M324.080566,87.641533 
	C322.285980,86.350250 320.491394,85.058968 318.343140,83.513199 
	C318.343140,87.810318 318.343140,91.267311 318.343140,94.905128 
	C320.625183,92.294518 322.597595,90.038116 324.080566,87.641533 
M474.630646,91.298195 
	C476.414581,90.368233 478.198517,89.438263 480.963867,87.996689 
	C478.109619,86.478844 476.360260,85.548576 474.792572,84.714905 
	C474.566132,86.958893 474.367981,88.922363 474.630646,91.298195 
M616.627441,87.665314 
	C614.956360,86.596565 613.285278,85.527817 611.760132,84.552406 
	C611.760132,87.158028 611.760132,89.240082 611.760132,91.544823 
	C613.412659,90.457329 615.018616,89.400452 616.627441,87.665314 
M605.650513,89.512657 
	C606.423401,89.933105 607.196228,90.353546 608.013489,90.798119 
	C608.247620,88.640556 608.439209,86.875099 608.630798,85.109642 
	C608.281860,84.910507 607.932983,84.711372 607.584045,84.512238 
	C606.811646,85.989639 606.039246,87.467049 605.650513,89.512657 
M471.162628,88.963730 
	C471.343201,87.686142 471.523773,86.408562 471.836853,84.193459 
	C470.200623,85.545120 468.989532,86.185028 468.384003,87.189903 
	C468.055237,87.735451 468.543762,89.082611 469.079895,89.715721 
	C469.367218,90.054993 470.536285,89.647552 471.162628,88.963730 
z"/>
<path fill="#4A85CB" opacity="1.000000" stroke="none" 
	d="
M342.899902,32.080830 
	C342.932068,42.077381 342.846985,52.076366 343.054321,62.069283 
	C343.136993,66.053665 341.500427,67.294945 337.703827,67.263710 
	C322.541351,67.138954 307.376556,67.134338 292.214172,67.265762 
	C288.342773,67.299316 286.869354,65.910736 286.944092,61.996605 
	C287.128632,52.335423 287.010834,42.668457 287.364319,32.467667 
	C288.757660,31.283648 289.801239,30.635780 291.133850,30.312828 
	C307.254578,30.740686 323.086182,30.843630 339.260803,30.997704 
	C340.702484,31.392830 341.801208,31.736830 342.899902,32.080830 
z"/>
<path fill="#4A85CB" opacity="1.000000" stroke="none" 
	d="
M206.899918,32.080818 
	C206.932083,42.077374 206.846939,52.076363 207.054321,62.069279 
	C207.137009,66.053696 205.500412,67.294945 201.703827,67.263710 
	C186.541336,67.138962 171.376541,67.134338 156.214172,67.265755 
	C152.342758,67.299316 150.869385,65.910736 150.944153,61.996582 
	C151.128693,52.335407 151.010834,42.668453 151.364319,32.467659 
	C152.757675,31.283634 153.801224,30.635771 155.133865,30.312824 
	C171.254578,30.740683 187.086197,30.843626 203.260803,30.997696 
	C204.702484,31.392822 205.801208,31.736822 206.899918,32.080818 
z"/>
<path fill="#4A85CB" opacity="1.000000" stroke="none" 
	d="
M70.899918,32.080837 
	C70.932091,42.077389 70.846954,52.076370 71.054314,62.069286 
	C71.136986,66.053665 69.500427,67.294952 65.703827,67.263710 
	C50.541340,67.138954 35.376549,67.134346 20.214180,67.265762 
	C16.342783,67.299316 14.869370,65.910789 14.944142,61.996613 
	C15.128701,52.335426 15.010834,42.668465 15.364319,32.467663 
	C16.757664,31.283638 17.801222,30.635773 19.133860,30.312820 
	C35.254574,30.740673 51.086208,30.843615 67.260818,30.997692 
	C68.702507,31.392832 69.801208,31.736835 70.899918,32.080837 
z"/>
<path fill="#CDCDCD" opacity="1.000000" stroke="none" 
	d="
M431.038574,70.983215 
	C430.359619,69.432343 429.105560,67.886948 429.090759,66.329758 
	C428.943939,50.904976 429.058533,35.477905 428.964996,20.052303 
	C428.939850,15.904747 430.534302,13.881316 434.824890,13.978156 
	C440.295898,14.101640 445.773468,13.937848 451.244293,14.065132 
	C452.426270,14.092632 453.591675,14.832106 454.883759,16.088339 
	C455.009064,20.407148 454.834045,23.893719 455.071838,27.351898 
	C455.316132,30.904665 457.042969,33.176579 461.071106,33.025913 
	C464.705841,32.889961 468.349274,32.986595 471.988892,32.980652 
	C472.325500,34.548309 472.937805,36.113235 472.953369,37.684078 
	C473.045441,46.968658 473.065399,56.255524 472.938049,65.539268 
	C472.914886,67.228157 472.098969,68.906181 470.999969,70.509605 
	C457.816559,70.315590 445.282257,70.189262 432.747650,70.125465 
	C432.179443,70.122566 431.608337,70.684410 431.038574,70.983215 
M443.746094,55.999836 
	C450.151947,55.999836 456.557831,55.999836 462.963684,55.999836 
	C462.928070,55.255596 462.892456,54.511360 462.856842,53.767120 
	C454.954193,53.767120 447.051514,53.767120 439.148865,53.767120 
	C439.098358,54.300091 439.047821,54.833057 438.997314,55.366028 
	C440.269775,55.577034 441.542236,55.788040 443.746094,55.999836 
M448.546356,47.000008 
	C445.412170,47.000008 442.277985,47.000008 437.958557,47.000008 
	C441.513489,50.494778 458.489136,50.889606 462.890686,48.097157 
	C458.612488,46.406578 453.991669,47.285362 448.546356,47.000008 
M453.453644,43.999992 
	C456.587830,43.999992 459.722015,43.999992 464.041443,43.999992 
	C460.486511,40.505222 443.510895,40.110394 439.109314,42.902843 
	C443.387512,44.593422 448.008331,43.714638 453.453644,43.999992 
M439.143341,60.489605 
	C442.320099,62.671883 450.809631,62.649902 454.990143,59.624413 
	C449.049835,59.624413 444.187103,59.624413 439.143341,60.489605 
z"/>
<path fill="#CDCDCD" opacity="1.000000" stroke="none" 
	d="
M567.038452,70.983200 
	C566.359375,69.432304 565.105164,67.886879 565.090393,66.329651 
	C564.943481,50.904903 565.057922,35.477852 564.964600,20.052261 
	C564.939575,15.905209 566.534180,13.881212 570.824890,13.978133 
	C576.295898,14.101716 581.773438,13.937853 587.244324,14.065130 
	C588.426270,14.092628 589.591675,14.832072 590.883911,16.088303 
	C591.009216,20.407125 590.834045,23.893696 591.071838,27.351870 
	C591.316162,30.904581 593.042969,33.176575 597.071167,33.025917 
	C600.705872,32.889977 604.349365,32.986591 607.988953,32.980648 
	C608.325806,34.548317 608.938599,36.113255 608.954224,37.684113 
	C609.046326,46.968689 609.066284,56.255554 608.938904,65.539284 
	C608.915649,67.228203 608.099243,68.906212 606.999878,70.509613 
	C593.816467,70.315582 581.282104,70.189262 568.747498,70.125450 
	C568.179260,70.122551 567.608215,70.684395 567.038452,70.983200 
M588.473755,41.000008 
	C576.486694,41.000004 576.486694,41.000004 575.300171,43.258934 
	C583.001526,45.201298 597.386292,44.262501 599.077393,41.000008 
	C595.626404,41.000008 592.539429,41.000008 588.473755,41.000008 
M595.185303,53.000931 
	C588.479309,53.139854 581.728577,52.707531 575.054871,53.258526 
	C575.079407,53.934017 575.103943,54.609512 575.128479,55.285004 
	C582.969788,55.285004 590.811096,55.285004 598.652405,55.285004 
	C598.801758,55.029617 598.951111,54.774235 599.100464,54.518848 
	C598.101807,54.014458 597.103088,53.510067 595.185303,53.000931 
M585.526245,49.999992 
	C597.513306,49.999992 597.513306,49.999992 598.699829,47.741066 
	C590.998474,45.798702 576.613708,46.737499 574.922607,49.999992 
	C578.373596,49.999992 581.460571,49.999992 585.526245,49.999992 
M588.029663,61.967991 
	C588.626465,61.539936 589.223328,61.111881 589.820129,60.683800 
	C589.181152,60.132061 588.557373,59.125515 587.900635,59.103558 
	C584.081665,58.975880 580.251404,59.005348 576.435120,59.191723 
	C575.912354,59.217255 575.446838,60.413322 574.927002,61.104397 
	C575.592224,61.513149 575.867981,61.828030 576.150452,61.834122 
	C579.806641,61.913017 583.463867,61.948009 588.029663,61.967991 
z"/>
<path fill="#456EA1" opacity="1.000000" stroke="none" 
	d="
M290.844788,29.987907 
	C289.801239,30.635780 288.757660,31.283648 287.407776,32.005901 
	C287.064819,28.758923 287.171417,25.428181 286.954742,22.118601 
	C286.692108,18.106468 288.573425,16.807623 292.330566,17.003384 
	C295.976227,17.193336 299.668793,16.768169 303.283966,17.150202 
	C305.434143,17.377420 307.997101,18.113100 309.452118,19.552534 
	C312.184326,22.255445 315.069214,23.260916 318.810181,23.100830 
	C324.117584,22.873713 329.441986,23.042587 334.759125,23.043457 
	C343.016327,23.044809 343.016327,23.045242 342.950378,31.632807 
	C341.801208,31.736830 340.702484,31.392830 339.284912,30.596643 
	C339.135590,27.148932 337.611206,25.990343 334.734650,25.998848 
	C321.617004,26.037630 308.498962,26.055754 295.381592,25.982935 
	C292.504303,25.966961 291.019379,27.136196 290.844788,29.987907 
z"/>
<path fill="#456EA1" opacity="1.000000" stroke="none" 
	d="
M18.844782,29.987907 
	C17.801222,30.635773 16.757664,31.283638 15.407790,32.005898 
	C15.064817,28.758928 15.171400,25.428185 14.954739,22.118601 
	C14.692086,18.106482 16.573406,16.807619 20.330555,17.003384 
	C23.976208,17.193336 27.668758,16.768171 31.283958,17.150204 
	C33.434139,17.377419 35.997116,18.113092 37.452129,19.552525 
	C40.184334,22.255466 43.069210,23.260916 46.810200,23.100832 
	C52.117615,22.873720 57.442005,23.042587 62.759140,23.043459 
	C71.016304,23.044809 71.016304,23.045242 70.950386,31.632814 
	C69.801208,31.736835 68.702507,31.392832 67.284927,30.596634 
	C67.135567,27.148933 65.611183,25.990339 62.734646,25.998844 
	C49.616997,26.037632 36.498940,26.055758 23.381575,25.982929 
	C20.504267,25.966957 19.019403,27.136251 18.844782,29.987907 
z"/>
<path fill="#456EA1" opacity="1.000000" stroke="none" 
	d="
M154.844788,29.987907 
	C153.801224,30.635771 152.757675,31.283634 151.407806,32.005894 
	C151.064819,28.758926 151.171402,25.428183 150.954727,22.118601 
	C150.692078,18.106485 152.573395,16.807617 156.330551,17.003382 
	C159.976212,17.193342 163.668747,16.768171 167.283951,17.150204 
	C169.434143,17.377420 171.997116,18.113079 173.452133,19.552517 
	C176.184341,22.255463 179.069214,23.260912 182.810196,23.100832 
	C188.117615,22.873720 193.441986,23.042587 198.759125,23.043459 
	C207.016296,23.044809 207.016296,23.045242 206.950394,31.632797 
	C205.801208,31.736822 204.702484,31.392822 203.284912,30.596636 
	C203.135590,27.148937 201.611191,25.990339 198.734665,25.998842 
	C185.617004,26.037628 172.498932,26.055758 159.381577,25.982933 
	C156.504288,25.966961 155.019379,27.136227 154.844788,29.987907 
z"/>
<path fill="#E1E1E1" opacity="1.000000" stroke="none" 
	d="
M607.943298,32.641121 
	C604.349365,32.986591 600.705872,32.889977 597.071167,33.025917 
	C593.042969,33.176575 591.316162,30.904581 591.071838,27.351870 
	C590.834045,23.893696 591.009216,20.407125 591.005859,16.469116 
	C596.638306,21.437336 602.268005,26.869465 607.943298,32.641121 
z"/>
<path fill="#E1E1E1" opacity="1.000000" stroke="none" 
	d="
M471.943176,32.641151 
	C468.349274,32.986595 464.705841,32.889961 461.071106,33.025913 
	C457.042969,33.176579 455.316132,30.904665 455.071838,27.351898 
	C454.834045,23.893719 455.009064,20.407148 455.005737,16.469151 
	C460.638245,21.437386 466.267883,26.869518 471.943176,32.641151 
z"/>
<path fill="#6F6F6F" opacity="1.000000" stroke="none" 
	d="
M71.216370,91.823288 
	C68.860565,90.747833 66.928230,89.622246 64.939903,88.464043 
	C67.270882,85.814972 69.290726,83.519493 72.270729,80.132835 
	C72.017265,84.809410 71.828552,88.291283 71.216370,91.823288 
z"/>
<path fill="#6F6F6F" opacity="1.000000" stroke="none" 
	d="
M460.548157,91.897980 
	C459.065155,90.531868 457.992249,89.167809 456.760864,87.602287 
	C458.201965,85.910103 460.173553,83.594963 463.004272,80.270981 
	C463.004272,84.494156 463.058685,87.781570 462.915161,91.060326 
	C462.901672,91.368195 461.640289,91.621429 460.548157,91.897980 
z"/>
<path fill="#C0C0C0" opacity="1.000000" stroke="none" 
	d="
M564.988892,85.014778 
	C567.058960,85.300674 569.128967,85.586571 571.563782,86.336395 
	C571.975830,88.519394 572.023132,90.238457 572.070435,91.957512 
	C569.843628,91.885933 567.490051,92.252693 565.416199,91.652672 
	C560.930237,90.354805 564.143005,87.762466 564.872498,85.321518 
	C565.000000,85.000336 564.988892,85.014778 564.988892,85.014778 
M567.631226,87.265968 
	C567.581787,87.112267 567.565552,86.933174 567.473267,86.812103 
	C567.384094,86.695152 567.216370,86.638016 567.083191,86.554611 
	C566.773071,87.455086 566.462952,88.355560 566.152771,89.256042 
	C566.452026,89.335938 566.751221,89.415825 567.050415,89.495720 
	C567.215637,88.921745 567.380798,88.347771 567.631226,87.265968 
z"/>
<path fill="#C0C0C0" opacity="1.000000" stroke="none" 
	d="
M439.988953,85.014778 
	C441.468170,84.942413 442.947357,84.870056 445.135681,84.763008 
	C445.449615,86.845642 445.770691,88.975609 446.151520,91.502159 
	C442.309967,91.686951 439.137756,91.839546 435.730377,92.003448 
	C437.205139,89.666161 438.478760,87.647621 439.876221,85.314705 
	C440.000000,85.000328 439.988953,85.014778 439.988953,85.014778 
M442.539032,87.788193 
	C442.244843,87.416542 441.950653,87.044891 441.656464,86.673241 
	C441.595490,87.546654 441.534485,88.420074 441.473511,89.293503 
	C441.781158,88.963295 442.088806,88.633080 442.539032,87.788193 
z"/>
<path fill="#C0C0C0" opacity="1.000000" stroke="none" 
	d="
M48.988922,85.014786 
	C50.467915,84.942436 51.946903,84.870094 54.135517,84.763039 
	C54.449490,86.845604 54.770603,88.975571 55.151512,91.502136 
	C51.310097,91.686928 48.138023,91.839531 44.730358,92.003464 
	C46.205132,89.666138 47.478756,87.647598 48.876186,85.314697 
	C48.999989,85.000328 48.988922,85.014778 48.988922,85.014786 
M51.362183,88.851105 
	C51.305889,88.098740 51.249596,87.346367 51.193298,86.594002 
	C50.783501,86.688049 50.373699,86.782097 49.963898,86.876144 
	C50.392963,87.704399 50.822033,88.532654 51.362183,88.851105 
z"/>
<path fill="#6B6B6B" opacity="1.000000" stroke="none" 
	d="
M35.186249,88.332161 
	C33.179207,90.459671 31.431192,92.538513 29.320347,95.048859 
	C29.320347,91.253677 29.320347,87.792328 29.320347,83.240715 
	C31.701065,85.200806 33.573170,86.742142 35.186249,88.332161 
z"/>
<path fill="#6B6B6B" opacity="1.000000" stroke="none" 
	d="
M426.186249,88.332153 
	C424.179199,90.459679 422.431183,92.538506 420.320312,95.048851 
	C420.320312,91.258575 420.320312,87.799133 420.320312,83.240616 
	C422.701080,85.200768 424.573181,86.742119 426.186249,88.332153 
z"/>
<path fill="#6B6B6B" opacity="1.000000" stroke="none" 
	d="
M324.325317,87.711624 
	C322.597595,90.038116 320.625183,92.294518 318.343140,94.905128 
	C318.343140,91.267311 318.343140,87.810318 318.343140,83.513199 
	C320.491394,85.058968 322.285980,86.350250 324.325317,87.711624 
z"/>
<path fill="#696969" opacity="1.000000" stroke="none" 
	d="
M572.467407,91.969231 
	C572.023132,90.238457 571.975830,88.519394 571.869507,86.373955 
	C571.913208,84.385063 572.015991,82.822556 572.160889,80.619148 
	C574.260864,83.530411 575.944275,85.864288 577.850159,88.506546 
	C576.629272,89.357353 574.746826,90.669151 572.467407,91.969231 
z"/>
<path fill="#C0C0C0" opacity="1.000000" stroke="none" 
	d="
M546.989014,85.014687 
	C553.175903,84.706619 553.748962,85.418640 552.216797,91.509834 
	C544.030334,91.381783 544.030334,91.381783 546.872070,85.321411 
	C547.000000,85.000328 546.989014,85.014687 546.989014,85.014687 
M548.342102,89.210449 
	C548.476929,89.301445 548.603027,89.444130 548.749023,89.468575 
	C548.888428,89.491905 549.178589,89.395813 549.179993,89.345901 
	C549.206299,88.418861 549.199341,87.490875 549.199341,86.073906 
	C548.593018,86.803085 548.289734,87.009987 548.233154,87.270477 
	C548.131897,87.736984 548.179138,88.235748 548.342102,89.210449 
z"/>
<path fill="#AFAFAF" opacity="1.000000" stroke="none" 
	d="
M567.503296,70.987579 
	C567.608215,70.684395 568.179260,70.122551 568.747498,70.125450 
	C581.282104,70.189262 593.816467,70.315582 606.655884,70.706680 
	C593.963318,70.986259 580.965698,70.989113 567.503296,70.987579 
z"/>
<path fill="#AFAFAF" opacity="1.000000" stroke="none" 
	d="
M431.503387,70.987595 
	C431.608337,70.684410 432.179443,70.122566 432.747650,70.125465 
	C445.282257,70.189262 457.816559,70.315590 470.655975,70.706696 
	C457.963409,70.986259 444.965790,70.989113 431.503387,70.987595 
z"/>
<path fill="#C1C1C1" opacity="1.000000" stroke="none" 
	d="
M474.400238,91.092010 
	C474.367981,88.922363 474.566132,86.958893 474.792572,84.714905 
	C476.360260,85.548576 478.109619,86.478844 480.963867,87.996689 
	C478.198517,89.438263 476.414581,90.368233 474.400238,91.092010 
z"/>
<path fill="#C1C1C1" opacity="1.000000" stroke="none" 
	d="
M616.626038,88.004440 
	C615.018616,89.400452 613.412659,90.457329 611.760132,91.544823 
	C611.760132,89.240082 611.760132,87.158028 611.760132,84.552406 
	C613.285278,85.527817 614.956360,86.596565 616.626038,88.004440 
z"/>
<path fill="#464646" opacity="1.000000" stroke="none" 
	d="
M177.604263,90.396629 
	C177.380280,89.075340 177.156296,87.754051 177.341690,86.090904 
	C179.511612,85.693253 181.272171,85.637459 183.032715,85.581657 
	C183.328888,86.120850 183.625046,86.660049 183.664200,87.567154 
	C182.917053,88.048996 182.426910,88.162941 181.567322,88.220093 
	C180.453186,88.200630 179.708481,88.237968 178.742798,88.246826 
	C178.393097,88.767479 178.264374,89.316605 178.002243,89.997894 
	C177.868835,90.130051 177.604263,90.396629 177.604263,90.396629 
z"/>
<path fill="#C1C1C1" opacity="1.000000" stroke="none" 
	d="
M605.458679,89.228561 
	C606.039246,87.467049 606.811646,85.989639 607.584045,84.512238 
	C607.932983,84.711372 608.281860,84.910507 608.630798,85.109642 
	C608.439209,86.875099 608.247620,88.640556 608.013489,90.798119 
	C607.196228,90.353546 606.423401,89.933105 605.458679,89.228561 
z"/>
<path fill="#C1C1C1" opacity="1.000000" stroke="none" 
	d="
M471.235046,89.270409 
	C470.536285,89.647552 469.367218,90.054993 469.079895,89.715721 
	C468.543762,89.082611 468.055237,87.735451 468.384003,87.189903 
	C468.989532,86.185028 470.200623,85.545120 471.836853,84.193459 
	C471.523773,86.408562 471.343201,87.686142 471.235046,89.270409 
z"/>
<path fill="#464646" opacity="1.000000" stroke="none" 
	d="
M591.032898,85.581657 
	C591.329163,86.120987 591.625366,86.660316 591.547974,87.578125 
	C590.441589,88.046005 589.708862,88.135406 588.659546,88.182625 
	C587.920898,88.181084 587.498840,88.221725 586.794006,88.263641 
	C586.386353,88.798241 586.261414,89.331573 586.002808,89.997292 
	C585.869202,90.129669 585.604187,90.396629 585.604187,90.396629 
	C585.380249,89.075287 585.156372,87.753952 585.341797,86.090820 
	C587.511719,85.693237 589.272339,85.637444 591.032898,85.581657 
z"/>
<path fill="#CBCBCB" opacity="1.000000" stroke="none" 
	d="
M182.942322,85.310623 
	C181.272171,85.637459 179.511612,85.693253 177.362457,85.790100 
	C178.933228,85.567299 180.892578,85.303444 182.942322,85.310623 
z"/>
<path fill="#CBCBCB" opacity="1.000000" stroke="none" 
	d="
M590.942444,85.310638 
	C589.272339,85.637444 587.511719,85.693237 585.362610,85.790009 
	C586.933350,85.567192 588.892700,85.303406 590.942444,85.310638 
z"/>
<path fill="#DBDBDB" opacity="1.000000" stroke="none" 
	d="
M587.076721,88.262367 
	C587.498840,88.221725 587.920898,88.181084 588.782837,88.391365 
	C589.319031,89.092781 589.415283,89.543282 589.511597,89.993774 
	C588.927429,89.989052 588.343201,89.984329 587.434570,89.992874 
	C587.110107,90.006142 587.038940,89.938911 587.050659,89.659622 
	C587.067078,89.007675 587.071899,88.635025 587.076721,88.262367 
z"/>
<path fill="#BABABA" opacity="1.000000" stroke="none" 
	d="
M589.891479,90.116058 
	C589.415283,89.543282 589.319031,89.092781 589.099365,88.433548 
	C589.708862,88.135406 590.441589,88.046005 591.539917,87.898392 
	C591.360779,88.639572 590.816040,89.438950 589.891479,90.116058 
z"/>
<path fill="#BABABA" opacity="1.000000" stroke="none" 
	d="
M181.936768,88.276886 
	C182.426910,88.162941 182.917053,88.048996 183.656143,87.887360 
	C183.326675,88.628571 182.748260,89.417473 181.967804,89.672546 
	C181.822754,88.851440 181.879761,88.564163 181.936768,88.276886 
z"/>
<path fill="#DBDBDB" opacity="1.000000" stroke="none" 
	d="
M181.567322,88.220093 
	C181.879761,88.564163 181.822754,88.851440 181.584686,89.541496 
	C180.849869,89.950600 180.296143,89.956917 179.426422,89.984642 
	C179.110443,90.006042 179.039261,89.939201 179.038940,89.522385 
	C179.013657,88.828812 178.988708,88.552063 178.963776,88.275307 
	C179.708481,88.237968 180.453186,88.200630 181.567322,88.220093 
z"/>
<path fill="#C0C0C0" opacity="1.000000" stroke="none" 
	d="
M49.007172,84.994919 
	C49.014355,84.989502 48.624680,84.761986 48.624680,84.761986 
	C48.624680,84.761986 48.909504,84.789352 48.949211,84.902069 
	C48.988922,85.014778 48.999989,85.000328 49.007172,84.994919 
z"/>
<path fill="#464646" opacity="1.000000" stroke="none" 
	d="
M587.143311,89.970123 
	C586.798950,90.221573 586.421448,90.509033 585.824036,90.596565 
	C585.604187,90.396629 585.869202,90.129669 586.228271,90.015800 
	C586.587280,89.901932 587.038940,89.938911 587.038940,89.938911 
	C587.038940,89.938911 587.110107,90.006142 587.143311,89.970123 
z"/>
<path fill="#C0C0C0" opacity="1.000000" stroke="none" 
	d="
M565.007141,84.994919 
	C565.014282,84.989502 564.624573,84.761986 564.624573,84.761986 
	C564.624573,84.761986 564.909424,84.789330 564.949158,84.902054 
	C564.988892,85.014778 565.000000,85.000336 565.007141,84.994919 
z"/>
<path fill="#C0C0C0" opacity="1.000000" stroke="none" 
	d="
M440.007172,84.994919 
	C440.014343,84.989502 439.624695,84.761963 439.624695,84.761963 
	C439.624695,84.761963 439.909546,84.789345 439.949249,84.902061 
	C439.988953,85.014778 440.000000,85.000328 440.007172,84.994919 
z"/>
<path fill="#C0C0C0" opacity="1.000000" stroke="none" 
	d="
M547.007080,84.994949 
	C547.014221,84.989571 546.624329,84.762001 546.624329,84.762001 
	C546.624329,84.762001 546.909607,84.789101 546.949341,84.901894 
	C546.989014,85.014687 547.000000,85.000328 547.007080,84.994949 
z"/>
<path fill="#464646" opacity="1.000000" stroke="none" 
	d="
M179.143433,89.970047 
	C178.798904,90.221542 178.421402,90.509018 177.824081,90.596558 
	C177.604263,90.396629 177.868835,90.130051 178.227936,90.016251 
	C178.587036,89.902443 179.039261,89.939201 179.039261,89.939201 
	C179.039261,89.939201 179.110443,90.006042 179.143433,89.970047 
z"/>
<path fill="#CCCCCD" opacity="1.000000" stroke="none" 
	d="
M291.133850,30.312824 
	C291.019379,27.136196 292.504303,25.966961 295.381592,25.982935 
	C308.498962,26.055754 321.617004,26.037630 334.734650,25.998848 
	C337.611206,25.990343 339.135590,27.148932 338.941956,30.545517 
	C323.086182,30.843630 307.254578,30.740686 291.133850,30.312824 
z"/>
<path fill="#CCCCCD" opacity="1.000000" stroke="none" 
	d="
M155.133865,30.312824 
	C155.019379,27.136227 156.504288,25.966961 159.381577,25.982933 
	C172.498932,26.055758 185.617004,26.037628 198.734665,25.998842 
	C201.611191,25.990339 203.135590,27.148937 202.941940,30.545509 
	C187.086197,30.843626 171.254578,30.740683 155.133865,30.312824 
z"/>
<path fill="#CCCCCD" opacity="1.000000" stroke="none" 
	d="
M19.133860,30.312820 
	C19.019403,27.136251 20.504267,25.966957 23.381575,25.982929 
	C36.498940,26.055758 49.616997,26.037632 62.734646,25.998844 
	C65.611183,25.990339 67.135567,27.148933 66.941956,30.545498 
	C51.086208,30.843615 35.254574,30.740673 19.133860,30.312820 
z"/>
<path fill="#676767" opacity="1.000000" stroke="none" 
	d="
M443.280396,55.999443 
	C441.542236,55.788040 440.269775,55.577034 438.997314,55.366028 
	C439.047821,54.833057 439.098358,54.300091 439.148865,53.767120 
	C447.051514,53.767120 454.954193,53.767120 462.856842,53.767120 
	C462.892456,54.511360 462.928070,55.255596 462.963684,55.999836 
	C456.557831,55.999836 450.151947,55.999836 443.280396,55.999443 
z"/>
<path fill="#676767" opacity="1.000000" stroke="none" 
	d="
M449.036194,47.000008 
	C453.991669,47.285362 458.612488,46.406578 462.890686,48.097157 
	C458.489136,50.889606 441.513489,50.494778 437.958557,47.000008 
	C442.277985,47.000008 445.412170,47.000008 449.036194,47.000008 
z"/>
<path fill="#676767" opacity="1.000000" stroke="none" 
	d="
M452.963806,43.999992 
	C448.008331,43.714638 443.387512,44.593422 439.109314,42.902843 
	C443.510895,40.110394 460.486511,40.505222 464.041443,43.999992 
	C459.722015,43.999992 456.587830,43.999992 452.963806,43.999992 
z"/>
<path fill="#676767" opacity="1.000000" stroke="none" 
	d="
M439.233826,60.057007 
	C444.187103,59.624413 449.049835,59.624413 454.990143,59.624413 
	C450.809631,62.649902 442.320099,62.671883 439.233826,60.057007 
z"/>
<path fill="#676767" opacity="1.000000" stroke="none" 
	d="
M588.963135,41.000008 
	C592.539429,41.000008 595.626404,41.000008 599.077393,41.000008 
	C597.386292,44.262501 583.001526,45.201298 575.300171,43.258934 
	C576.486694,41.000004 576.486694,41.000004 588.963135,41.000008 
z"/>
<path fill="#676767" opacity="1.000000" stroke="none" 
	d="
M595.644897,53.003304 
	C597.103088,53.510067 598.101807,54.014458 599.100464,54.518848 
	C598.951111,54.774235 598.801758,55.029617 598.652405,55.285004 
	C590.811096,55.285004 582.969788,55.285004 575.128479,55.285004 
	C575.103943,54.609512 575.079407,53.934017 575.054871,53.258526 
	C581.728577,52.707531 588.479309,53.139854 595.644897,53.003304 
z"/>
<path fill="#676767" opacity="1.000000" stroke="none" 
	d="
M585.036865,49.999992 
	C581.460571,49.999992 578.373596,49.999992 574.922607,49.999992 
	C576.613708,46.737499 590.998474,45.798702 598.699829,47.741066 
	C597.513306,49.999992 597.513306,49.999992 585.036865,49.999992 
z"/>
<path fill="#676767" opacity="1.000000" stroke="none" 
	d="
M587.575195,61.981037 
	C583.463867,61.948009 579.806641,61.913017 576.150452,61.834122 
	C575.867981,61.828030 575.592224,61.513149 574.927002,61.104397 
	C575.446838,60.413322 575.912354,59.217255 576.435120,59.191723 
	C580.251404,59.005348 584.081665,58.975880 587.900635,59.103558 
	C588.557373,59.125515 589.181152,60.132061 589.820129,60.683815 
	C589.223328,61.111881 588.626465,61.539936 587.575195,61.981037 
z"/>
<path fill="#DADADA" opacity="1.000000" stroke="none" 
	d="
M567.588623,87.519882 
	C567.380798,88.347771 567.215637,88.921745 567.050415,89.495720 
	C566.751221,89.415825 566.452026,89.335938 566.152771,89.256042 
	C566.462952,88.355560 566.773071,87.455086 567.083191,86.554604 
	C567.216370,86.638016 567.384094,86.695152 567.473267,86.812103 
	C567.565552,86.933174 567.581787,87.112267 567.588623,87.519882 
z"/>
<path fill="#DADADA" opacity="1.000000" stroke="none" 
	d="
M442.467743,88.045532 
	C442.088806,88.633080 441.781158,88.963295 441.473511,89.293495 
	C441.534485,88.420074 441.595490,87.546654 441.656464,86.673233 
	C441.950653,87.044891 442.244843,87.416542 442.467743,88.045532 
z"/>
<path fill="#DADADA" opacity="1.000000" stroke="none" 
	d="
M51.306641,89.106003 
	C50.822033,88.532654 50.392963,87.704399 49.963898,86.876144 
	C50.373699,86.782097 50.783501,86.688049 51.193298,86.594002 
	C51.249596,87.346367 51.305889,88.098740 51.306641,89.106003 
z"/>
<path fill="#DADADA" opacity="1.000000" stroke="none" 
	d="
M548.253174,88.965736 
	C548.179138,88.235748 548.131897,87.736984 548.233154,87.270477 
	C548.289734,87.009987 548.593018,86.803085 549.199341,86.073906 
	C549.199341,87.490875 549.206299,88.418861 549.179993,89.345901 
	C549.178589,89.395813 548.888428,89.491905 548.749023,89.468575 
	C548.603027,89.444130 548.476929,89.301445 548.253174,88.965736 
z"/>
<path fill="#BABABA" opacity="1.000000" stroke="none" 
	d="
M179.038940,89.522385 
	C179.039261,89.939201 178.587036,89.902443 178.361343,89.884094 
	C178.264374,89.316605 178.393097,88.767479 178.742798,88.246826 
	C178.988708,88.552063 179.013657,88.828812 179.038940,89.522385 
z"/>
<path fill="#BABABA" opacity="1.000000" stroke="none" 
	d="
M587.050659,89.659622 
	C587.038940,89.938911 586.587280,89.901932 586.361816,89.883423 
	C586.261414,89.331573 586.386353,88.798241 586.794006,88.263641 
	C587.071899,88.635025 587.067078,89.007675 587.050659,89.659622 
z"/>
</svg>